<svg xmlns="http://www.w3.org/2000/svg" width="29" height="29" viewBox="0 0 29 29" fill="#667085">
<path d="M4.26399 13.4746C3.95232 13.802 3.78332 14.2396 3.79413 14.6915C3.80494 15.1434 3.99467 15.5725 4.32163 15.8846L10.9051 22.1638C11.2326 22.476 11.6708 22.6454 12.1232 22.6345C12.5755 22.6237 13.0051 22.4336 13.3173 22.1061C13.6296 21.7786 13.7989 21.3404 13.7881 20.888C13.7773 20.4357 13.5872 20.0061 13.2596 19.6939L9.65598 16.2574L22.7687 15.9438C23.2209 15.933 23.6503 15.743 23.9625 15.4155C24.2746 15.0881 24.4439 14.6501 24.4331 14.1979C24.4222 13.7456 24.2322 13.3162 23.9048 13.0041C23.5774 12.6919 23.1393 12.5227 22.6871 12.5335L9.57441 12.8471L13.0097 9.24348C13.1643 9.08131 13.2854 8.89027 13.3662 8.68127C13.447 8.47227 13.4858 8.24941 13.4804 8.02542C13.4751 7.80142 13.4256 7.58067 13.335 7.37578C13.2443 7.17088 13.1142 6.98585 12.952 6.83125C12.7898 6.67665 12.5988 6.5555 12.3898 6.47473C12.1808 6.39396 11.9579 6.35515 11.7339 6.36051C11.5099 6.36586 11.2892 6.41529 11.0843 6.50596C10.8794 6.59663 10.6944 6.72677 10.5397 6.88894L4.26399 13.4746Z"/>
</svg>