<svg width="12" height="13" viewBox="0 0 12 13" fill="none" xmlns="http://www.w3.org/2000/svg">
<path d="M3.96959 11.2731C3.82899 11.1324 3.75 10.9417 3.75 10.7428C3.75 10.544 3.82899 10.3532 3.96959 10.2126L7.68209 6.50009L3.96959 2.78759C3.83297 2.64613 3.75737 2.45668 3.75908 2.26004C3.76079 2.06339 3.83967 1.87528 3.97873 1.73622C4.11778 1.59717 4.30589 1.51829 4.50254 1.51658C4.69919 1.51487 4.88864 1.59047 5.03009 1.72709L9.27284 5.96984C9.41344 6.11048 9.49243 6.30121 9.49243 6.50009C9.49243 6.69896 9.41344 6.88969 9.27284 7.03034L5.03009 11.2731C4.88944 11.4137 4.69871 11.4927 4.49984 11.4927C4.30097 11.4927 4.11024 11.4137 3.96959 11.2731Z" fill="white"/>
</svg>
