<svg width="18" height="19" viewBox="0 0 18 19" fill="none" xmlns="http://www.w3.org/2000/svg">
<path d="M14.9999 7.99984C14.9999 7.80093 14.9209 7.61016 14.7803 7.46951C14.6396 7.32886 14.4489 7.24984 14.2499 7.24984C14.051 7.24984 13.8603 7.32886 13.7196 7.46951C13.579 7.61016 13.4999 7.80093 13.4999 7.99984H14.9999ZM4.49994 7.99984C4.49994 7.80093 4.42092 7.61016 4.28027 7.46951C4.13962 7.32886 3.94885 7.24984 3.74994 7.24984C3.55103 7.24984 3.36026 7.32886 3.21961 7.46951C3.07896 7.61016 2.99994 7.80093 2.99994 7.99984H4.49994ZM15.2197 10.0301C15.3611 10.1667 15.5506 10.2423 15.7472 10.2406C15.9439 10.2389 16.132 10.16 16.2711 10.021C16.4101 9.8819 16.489 9.69379 16.4907 9.49714C16.4924 9.30049 16.4168 9.11104 16.2802 8.96959L15.2197 10.0301ZM8.99994 2.74984L9.53019 2.21959C9.38954 2.07899 9.19881 2 8.99994 2C8.80107 2 8.61033 2.07899 8.46969 2.21959L8.99994 2.74984ZM1.71969 8.96959C1.64806 9.03877 1.59092 9.12153 1.55161 9.21304C1.51231 9.30454 1.49162 9.40295 1.49075 9.50254C1.48989 9.60212 1.50886 9.70088 1.54657 9.79306C1.58428 9.88523 1.63997 9.96897 1.71039 10.0394C1.78081 10.1098 1.86455 10.1655 1.95672 10.2032C2.0489 10.2409 2.14766 10.2599 2.24724 10.259C2.34682 10.2582 2.44524 10.2375 2.53674 10.1982C2.62825 10.1589 2.711 10.1017 2.78019 10.0301L1.71969 8.96959ZM5.24994 16.9998H12.7499V15.4998H5.24994V16.9998ZM14.9999 14.7498V7.99984H13.4999V14.7498H14.9999ZM4.49994 14.7498V7.99984H2.99994V14.7498H4.49994ZM16.2802 8.96959L9.53019 2.21959L8.46969 3.28009L15.2197 10.0301L16.2802 8.96959ZM8.46969 2.21959L1.71969 8.96959L2.78019 10.0301L9.53019 3.28009L8.46969 2.21959ZM12.7499 16.9998C13.3467 16.9998 13.919 16.7628 14.3409 16.3408C14.7629 15.9189 14.9999 15.3466 14.9999 14.7498H13.4999C13.4999 14.9488 13.4209 15.1395 13.2803 15.2802C13.1396 15.4208 12.9489 15.4998 12.7499 15.4998V16.9998ZM5.24994 15.4998C5.05103 15.4998 4.86026 15.4208 4.71961 15.2802C4.57896 15.1395 4.49994 14.9488 4.49994 14.7498H2.99994C2.99994 15.3466 3.23699 15.9189 3.65895 16.3408C4.08091 16.7628 4.6532 16.9998 5.24994 16.9998V15.4998Z" fill="white"/>
</svg>
