<svg width="34" height="34" viewBox="0 0 34 34" fill="none" xmlns="http://www.w3.org/2000/svg">
<path d="M23.4539 18.2835L22.8093 18.9253C22.8093 18.9253 21.2751 20.4496 17.0888 16.2874C12.9026 12.1253 14.4368 10.6009 14.4368 10.6009L14.842 10.1958C15.8436 9.20126 15.9385 7.60326 15.0644 6.43593L13.2794 4.05168C12.1971 2.60668 10.1075 2.41543 8.86792 3.64793L6.64375 5.85793C6.03034 6.46993 5.6195 7.26043 5.66909 8.13876C5.79659 10.387 6.81375 15.2221 12.4861 20.8633C18.5027 26.8444 24.1481 27.0824 26.4558 26.8671C27.1868 26.7991 27.8215 26.4279 28.3329 25.9179L30.3446 23.9176C31.7046 22.5675 31.3221 20.2513 29.5824 19.3063L26.8766 17.8344C25.7348 17.2139 24.3464 17.3967 23.4539 18.2835Z" fill="#0080FF"/>
</svg>
