<svg width="579" height="589" viewBox="0 0 579 589" fill="none" xmlns="http://www.w3.org/2000/svg">
<path d="M-385.402 -393.842C-385.402 -393.842 -384.371 -392.17 -382.378 -388.93C-380.399 -385.68 -377.493 -380.791 -373.304 -374.995C-369.371 -368.845 -363.71 -362.518 -357.364 -354.504C-350.633 -347.268 -342.983 -338.884 -333.573 -331.183C-324.341 -323.125 -313.501 -315.766 -301.528 -308.438C-289.432 -301.454 -276.163 -294.593 -261.774 -287.9C-247.449 -280.966 -232.024 -274.121 -216.141 -264.959C-200.273 -255.855 -183.968 -244.392 -168.275 -229.191C-152.505 -214.068 -138.036 -194.326 -125.265 -171.527C-112.359 -148.363 -101.965 -121.753 -93.215 -93.3016C-84.4101 -64.8946 -77.1518 -34.9055 -68.7513 -5.21377C-60.3217 24.4185 -50.7962 53.9997 -37.5378 80.6017C-34.0347 87.014 -30.5167 93.4578 -26.9875 99.9172C-23.1152 105.813 -19.2318 111.725 -15.3261 117.662C-10.8949 123.245 -6.48806 129.062 -1.99513 134.515C2.66293 139.297 7.10559 144.42 11.9468 149C31.4495 167.513 53.4999 180.851 76.3469 192.5C99.1795 204.196 122.977 214.567 145.95 229.484C168.997 244.319 190.779 263.65 209.494 289.901C213.721 296.475 217.995 302.807 222.147 309.634L228.14 320.652C230.097 324.357 232.229 327.944 233.869 331.849C237.271 339.591 241.083 346.996 243.989 355.125L248.612 367.087C250.12 371.096 251.389 375.245 252.787 379.317C263.777 412.045 271.647 446.089 280.4 478.703C289.124 511.333 298.991 542.775 312.371 570.381C315.7 577.273 319.457 583.673 322.951 590.32C326.8 596.541 330.809 602.519 334.701 608.617C339.029 614.212 343.346 619.798 347.64 625.362C352.166 630.196 356.669 635.02 361.154 639.822C379.943 658.211 400.717 671.056 421.469 682.367C442.268 693.633 463.241 703.254 483.163 715.142C503.083 726.923 521.908 741.26 538.183 759.077C540.225 761.287 542.252 763.497 544.271 765.696C546.262 767.95 548.059 770.513 549.947 772.897C551.805 775.325 553.66 777.737 555.504 780.138L558.368 783.898L560.839 787.748C564.104 792.903 567.398 797.882 570.563 803.03C573.536 808.588 576.487 814.088 579.404 819.535C590.406 841.791 598.791 864.97 605.559 887.608C612.364 910.26 617.548 932.327 622.762 952.8C627.807 973.379 632.94 992.324 638.12 1009.58C643.543 1026.65 648.943 1042.09 654.792 1055.17C660.381 1068.52 666.443 1079.37 671.643 1088.87C677.349 1097.75 681.874 1105.73 686.271 1111.25C690.417 1117.15 693.87 1121.18 696.174 1123.95C698.478 1126.74 699.662 1128.17 699.662 1128.17C699.662 1128.17 698.438 1126.8 696.072 1124.14C693.698 1121.48 690.124 1117.6 685.844 1111.94C681.319 1106.66 676.537 1098.84 670.586 1090.2C665.096 1080.95 658.754 1070.24 652.878 1056.97C646.723 1043.97 640.976 1028.59 635.189 1011.56C629.643 994.369 624.116 975.445 618.688 955.069C607.618 914.572 595.881 867.853 574.114 825.243C571.295 820.139 568.439 814.978 565.565 809.769C562.385 804.75 559.007 799.799 555.69 794.741L553.18 790.951L550.588 787.711C548.786 785.442 546.973 783.157 545.156 780.867C543.309 778.62 541.561 776.178 539.623 774.051C537.653 771.984 535.667 769.911 533.682 767.822C517.82 751.055 499.545 737.635 479.92 726.571C460.295 715.379 439.352 706.306 418.101 695.377C396.861 684.543 375.315 671.063 355.447 651.99C350.562 646.937 345.661 641.698 340.815 636.446L334.224 628.05L330.913 623.834L329.26 621.726L328.429 620.672L328.016 620.144C327.539 619.502 327.658 619.627 327.449 619.323C323.315 612.955 319.064 606.669 314.991 600.134C311.263 593.168 307.285 586.428 303.754 579.206C289.557 550.242 279.201 517.544 270.235 484.548C261.239 451.499 253.329 417.989 242.617 386.569C241.257 382.662 240.015 378.651 238.557 374.832L234.1 363.446C231.304 355.693 227.66 348.757 224.417 341.426C222.833 337.68 220.881 334.509 219.074 331.12L213.59 321.047C209.565 314.468 205.139 308.043 200.956 301.506L194.409 293.119C192.138 290.281 189.99 287.227 187.621 284.563L180.388 276.797C177.956 274.246 175.637 271.469 173.016 269.307C167.847 264.832 162.944 259.774 157.484 255.962L149.48 249.853C146.79 247.864 143.981 246.192 141.233 244.337C119.171 229.79 95.7415 219.34 72.6039 207.311C49.4999 195.323 26.559 181.321 6.09978 161.667C0.972093 156.759 -3.91352 151.099 -8.88487 145.851C-13.4527 140.246 -17.7706 134.485 -22.2058 128.844C-26.726 122.123 -30.5702 116.014 -34.7524 109.593C-38.4833 102.803 -42.1772 96.0073 -45.7866 89.1716C-59.5759 61.0651 -69.5043 30.3383 -77.614 -0.000836092C-85.7976 -30.354 -92.6866 -60.3105 -100.994 -88.3046C-109.209 -116.269 -119.098 -142.392 -131.067 -164.617C-143.189 -187.018 -156.966 -206.448 -172.026 -221.388C-202.189 -251.603 -234.851 -267.19 -263.216 -281.988C-277.481 -289.233 -290.742 -296.664 -302.805 -304.171C-314.763 -312.028 -325.577 -319.883 -334.756 -328.385C-344.103 -336.472 -351.746 -345.362 -358.288 -353.002C-364.417 -361.31 -369.956 -367.971 -373.761 -374.369C-377.827 -380.404 -380.6 -385.424 -382.502 -388.778C-384.415 -392.12 -385.402 -393.842 -385.402 -393.842Z" fill="url(#paint0_linear_617_17602)" fill-opacity="0.06"/>
<defs>
<linearGradient id="paint0_linear_617_17602" x1="151.736" y1="-408.42" x2="193.812" y2="1141.9" gradientUnits="userSpaceOnUse">
<stop stop-color="white"/>
<stop offset="1" stop-color="#3049B0"/>
</linearGradient>
</defs>
</svg>
