<svg width="29" height="28" viewBox="0 0 29 28" fill="none" xmlns="http://www.w3.org/2000/svg">
<path d="M11.685 5.31974C9.70915 4.44427 6.94743 4.01541 3.25 4.00019C2.9013 3.99579 2.55944 4.09015 2.27 4.2707C2.03243 4.41972 1.83796 4.62064 1.7037 4.85577C1.56943 5.09091 1.49948 5.35307 1.5 5.61918V20.1394C1.5 21.1209 2.2525 21.8614 3.25 21.8614C7.13664 21.8614 11.0353 22.1984 13.3705 24.2468C13.4024 24.2749 13.4426 24.2937 13.4859 24.3009C13.5293 24.308 13.574 24.3032 13.6144 24.287C13.6549 24.2707 13.6893 24.2439 13.7134 24.2096C13.7375 24.1754 13.7502 24.1354 13.75 24.0945V6.98543C13.7501 6.87 13.7235 6.75589 13.672 6.65082C13.6205 6.54575 13.5452 6.45217 13.4514 6.3764C12.9165 5.95203 12.3224 5.5966 11.685 5.31974ZM26.98 4.26917C26.6904 4.08908 26.3486 3.99524 26 4.00019C22.3026 4.01541 19.5409 4.44224 17.565 5.31974C16.9277 5.5961 16.3334 5.95083 15.7981 6.37437C15.7044 6.45027 15.6294 6.54389 15.578 6.64894C15.5266 6.75399 15.5 6.86803 15.5 6.9834V24.0935C15.5 24.1328 15.5125 24.1712 15.5359 24.2039C15.5593 24.2366 15.5926 24.2622 15.6316 24.2775C15.6706 24.2927 15.7136 24.2969 15.7552 24.2895C15.7968 24.2822 15.8351 24.2636 15.8653 24.2361C17.2691 22.9419 19.7328 21.8599 26.0022 21.8604C26.4663 21.8604 26.9114 21.6893 27.2396 21.3847C27.5678 21.0801 27.7522 20.6671 27.7522 20.2363V5.61969C27.7528 5.35305 27.6827 5.09037 27.5481 4.85483C27.4134 4.6193 27.2183 4.41816 26.98 4.26917Z" fill="white"/>
</svg>
