<svg width="28" height="28" viewBox="0 0 28 28" fill="none" xmlns="http://www.w3.org/2000/svg">
<path fill-rule="evenodd" clip-rule="evenodd" d="M11.4002 10.9351H15.1555V12.8057C15.6964 11.7298 17.0837 10.7632 19.1676 10.7632C23.1625 10.7632 24.1109 12.9047 24.1109 16.8339V24.1109H20.0664V17.7288C20.0664 15.4912 19.5255 14.2293 18.1484 14.2293C16.2384 14.2293 15.4447 15.5892 15.4447 17.7277V24.1109H11.4002V10.9351ZM4.46501 23.939H8.50945V10.7632H4.46501V23.939ZM9.08882 6.46701C9.08897 6.80601 9.02173 7.14165 8.89103 7.45444C8.76032 7.76723 8.56875 8.05092 8.32745 8.28903C7.83848 8.77499 7.17661 9.04701 6.48723 9.04534C5.79905 9.04488 5.13872 8.77355 4.64903 8.29004C4.4086 8.05113 4.21767 7.76712 4.0872 7.45429C3.95672 7.14146 3.88926 6.80595 3.88867 6.46701C3.88867 5.78248 4.16167 5.12728 4.65004 4.64397C5.1393 4.15981 5.79991 3.88837 6.48824 3.88867C7.17782 3.88867 7.83908 4.16066 8.32745 4.64397C8.8148 5.12728 9.08882 5.78248 9.08882 6.46701Z" fill="white"/>
</svg>
