<svg width="28" height="28" viewBox="0 0 28 28" fill="none" xmlns="http://www.w3.org/2000/svg">
<g clip-path="url(#clip0_585_14017)">
<path d="M14.0002 4.6665C14.9977 4.6665 16.0208 4.69217 17.0125 4.73417L18.1838 4.79017L19.305 4.85667L20.355 4.92784L21.314 5.0025C22.3547 5.08216 23.334 5.52628 24.0796 6.25672C24.8252 6.98716 25.2893 7.95714 25.3903 8.99601L25.437 9.49184L25.5245 10.5535C25.6061 11.6537 25.6668 12.853 25.6668 13.9998C25.6668 15.1467 25.6061 16.346 25.5245 17.4462L25.437 18.5078C25.4218 18.6782 25.4067 18.8427 25.3903 19.0037C25.2893 20.0427 24.825 21.0129 24.0792 21.7433C23.3333 22.4738 22.3538 22.9178 21.3128 22.9972L20.3562 23.0707L19.3062 23.143L18.1838 23.2095L17.0125 23.2655C16.009 23.3091 15.0046 23.3317 14.0002 23.3332C12.9957 23.3317 11.9914 23.3091 10.9878 23.2655L9.81649 23.2095L8.69533 23.143L7.64533 23.0707L6.68633 22.9972C5.6456 22.9175 4.66631 22.4734 3.92071 21.743C3.17512 21.0125 2.711 20.0425 2.61 19.0037L2.56333 18.5078L2.47583 17.4462C2.38662 16.2995 2.33915 15.15 2.3335 13.9998C2.3335 12.853 2.39416 11.6537 2.47583 10.5535L2.56333 9.49184C2.5785 9.32151 2.59366 9.15701 2.61 8.99601C2.71096 7.95732 3.17492 6.98749 3.92027 6.25707C4.66562 5.52665 5.64464 5.08242 6.68516 5.0025L7.64299 4.92784L8.69299 4.85667L9.81533 4.79017L10.9867 4.73417C11.9906 4.69058 12.9953 4.66802 14.0002 4.6665ZM14.0002 6.99984C13.0377 6.99984 12.0472 7.02551 11.0835 7.06517L9.94249 7.12001L8.84699 7.18417L7.81799 7.25417L6.87533 7.32767C6.37988 7.36282 5.91288 7.57226 5.5571 7.91885C5.20133 8.26545 4.97975 8.72681 4.93166 9.22117C4.79516 10.6317 4.66683 12.3875 4.66683 13.9998C4.66683 15.6122 4.79516 17.368 4.93166 18.7785C5.03083 19.7958 5.83816 20.5868 6.87533 20.672L7.81799 20.7443L8.84699 20.8143L9.94249 20.8797L11.0835 20.9345C12.0472 20.9742 13.0377 20.9998 14.0002 20.9998C14.9627 20.9998 15.9532 20.9742 16.9168 20.9345L18.0578 20.8797L19.1533 20.8155L20.1823 20.7455L21.125 20.672C21.6204 20.6369 22.0874 20.4274 22.4432 20.0808C22.799 19.7342 23.0206 19.2729 23.0687 18.7785C23.2052 17.368 23.3335 15.6122 23.3335 13.9998C23.3335 12.3875 23.2052 10.6317 23.0687 9.22117C23.0206 8.72681 22.799 8.26545 22.4432 7.91885C22.0874 7.57226 21.6204 7.36282 21.125 7.32767L20.1823 7.25534L19.1533 7.18534L18.0578 7.12001L16.9168 7.06517C15.9452 7.02337 14.9727 7.00158 14.0002 6.99984ZM11.6668 11.1707C11.6667 11.0566 11.6945 10.9443 11.7478 10.8435C11.801 10.7426 11.878 10.6563 11.9722 10.592C12.0664 10.5278 12.1748 10.4875 12.2881 10.4746C12.4014 10.4618 12.5162 10.4769 12.6223 10.5185L12.7168 10.5652L17.6168 13.3932C17.7144 13.4495 17.7969 13.5285 17.8574 13.6235C17.918 13.7185 17.9546 13.8268 17.9644 13.939C17.9741 14.0512 17.9566 14.1642 17.9134 14.2682C17.8701 14.3722 17.8024 14.4642 17.716 14.5365L17.6168 14.6065L12.7168 17.4357C12.6181 17.4929 12.5069 17.525 12.3928 17.5294C12.2788 17.5338 12.1655 17.5102 12.0626 17.4607C11.9598 17.4113 11.8706 17.3374 11.8029 17.2456C11.7351 17.1538 11.6908 17.0468 11.6738 16.934L11.6668 16.829V11.1707Z" fill="white"/>
</g>
<defs>
<clipPath id="clip0_585_14017">
<rect width="28" height="28" fill="white"/>
</clipPath>
</defs>
</svg>
