<svg width="71" height="100" viewBox="0 0 71 100" fill="none" xmlns="http://www.w3.org/2000/svg">
<path d="M10.9319 81.1623C10.9319 81.1623 10.9784 81.1854 11.0016 81.197C11.0016 82.4794 11.0307 83.7676 11.1062 85.0616C12.1409 84.299 13.1464 83.5076 14.1171 82.6931C14.1404 82.7047 14.1694 82.7162 14.1985 82.7278C13.7684 84.507 13.3673 86.2978 12.9953 88.0943C12.6349 87.9441 12.2745 87.7882 11.9142 87.6264C12.106 86.8408 12.3036 86.0552 12.5012 85.2753C11.7398 85.8761 10.9609 86.4595 10.1646 87.0372C10.1413 87.0256 10.1181 87.0141 10.089 87.0025C10.0193 85.9974 9.97278 85.0038 9.94953 84.0044C9.44384 84.6572 8.93815 85.3042 8.42665 85.9454C8.09534 85.7721 7.76984 85.5988 7.44434 85.4197C8.6359 84.016 9.79841 82.5949 10.9377 81.1508L10.9319 81.1623Z" fill="#112264"/>
<path d="M16.2971 83.7849C17.198 84.1315 18.099 84.455 19.0115 84.7554C18.9011 85.0962 18.7848 85.437 18.6744 85.7836C18.0932 85.593 17.5177 85.3966 16.9423 85.1829C16.8318 85.4775 16.7214 85.7779 16.6168 86.0725C17.1167 86.2573 17.6223 86.4306 18.128 86.5981C18.0118 86.939 17.9013 87.274 17.7851 87.6148C17.2678 87.4415 16.7563 87.2625 16.2448 87.0776C16.1227 87.4011 16.0065 87.7246 15.8844 88.0481C16.5005 88.2734 17.1225 88.4871 17.7444 88.6893C17.6282 89.0359 17.5119 89.3883 17.4015 89.7349C16.3901 89.4056 15.3845 89.0475 14.3848 88.6604C15.0241 87.0372 15.6635 85.4082 16.2971 83.7849Z" fill="#112264"/>
<path d="M20.5354 85.05C20.5703 85.0615 20.5993 85.0673 20.6342 85.0789C21.2736 86.3266 21.9711 87.5628 22.7267 88.7875C22.9476 87.8517 23.1685 86.9159 23.3893 85.98C23.7207 86.0551 24.052 86.1302 24.3891 86.2053C24.0055 87.973 23.6218 89.7464 23.2382 91.5141C23.2033 91.5083 23.1685 91.4968 23.1336 91.491C22.3082 90.2721 21.541 89.0359 20.8376 87.7881C20.5819 88.7066 20.332 89.6193 20.0762 90.5378C19.7158 90.4396 19.3496 90.3356 18.9893 90.2317C19.5066 88.5044 20.0181 86.7772 20.5354 85.05Z" fill="#112264"/>
<path d="M26.4922 90.9538C26.9166 91.0231 27.2014 90.8383 27.2479 90.5552C27.3002 90.1971 27.0037 90.0064 26.562 89.6194C26.4632 89.5385 26.3644 89.4519 26.2714 89.371C25.7076 88.88 25.4983 88.3485 25.6145 87.742C25.7715 86.9332 26.469 86.4364 27.3641 86.5809C27.7071 86.6328 28.0732 86.783 28.4859 87.0083C28.4336 87.4127 28.3755 87.8171 28.3232 88.2272C27.8756 87.8171 27.4862 87.6091 27.2362 87.5687C26.9224 87.5225 26.7015 87.6495 26.6608 87.9037C26.6317 88.077 26.7131 88.2561 26.9107 88.4236C27.0793 88.5623 27.2479 88.7067 27.4164 88.8453C28.0442 89.3652 28.4976 89.8042 28.3929 90.6361C28.2767 91.6123 27.4862 92.2478 26.3353 92.0687C25.9459 92.0052 25.5157 91.8434 25.0449 91.595C25.0972 91.1329 25.1495 90.665 25.2019 90.2028C25.6378 90.613 26.0272 90.8903 26.4981 90.9654L26.4922 90.9538Z" fill="#112264"/>
<path d="M33.821 91.6412C34.2511 91.6527 34.5127 91.4332 34.5185 91.1501C34.5243 90.7862 34.2046 90.636 33.7163 90.3125C33.6117 90.2432 33.5013 90.1739 33.3967 90.0988C32.7747 89.6829 32.5015 89.1861 32.5364 88.5622C32.5829 87.7419 33.2107 87.1585 34.1174 87.1816C34.4604 87.1931 34.844 87.2913 35.2799 87.4646C35.2799 87.8748 35.2799 88.2849 35.2799 88.6893C34.78 88.3427 34.3732 88.1809 34.1232 88.1752C33.8035 88.1694 33.6059 88.3196 33.6001 88.5795C33.5943 88.7586 33.6989 88.9203 33.914 89.0648C34.0942 89.1861 34.2802 89.3016 34.4662 89.4171C35.152 89.8504 35.6635 90.2317 35.6635 91.0693C35.6694 92.0513 34.9719 92.7849 33.8093 92.7503C33.4141 92.7387 32.9723 92.6348 32.4725 92.4441C32.4608 91.9762 32.455 91.5083 32.4492 91.0462C32.9375 91.3985 33.3502 91.6238 33.8326 91.6354L33.821 91.6412Z" fill="#112264"/>
<path d="M38.7268 87.118C38.7268 87.118 38.7733 87.118 38.7966 87.118C39.6743 88.8684 40.6275 90.5898 41.6622 92.2882C41.2379 92.3344 40.8194 92.3748 40.395 92.4095C40.2672 92.1669 40.1393 91.9242 40.0114 91.6758C39.3372 91.7278 38.6571 91.7683 37.977 91.7971C37.8782 92.0571 37.7794 92.3113 37.6806 92.5712C37.2737 92.5886 36.8668 92.6001 36.46 92.6059C37.2912 90.792 38.0468 88.9608 38.721 87.118H38.7268ZM39.5813 90.8036C39.3255 90.2721 39.0814 89.7406 38.8431 89.2092C38.6629 89.7695 38.4769 90.3241 38.2909 90.8844C38.721 90.8613 39.1512 90.8382 39.5871 90.8036H39.5813Z" fill="#112264"/>
<path d="M48.7017 85.5872C48.7017 85.5872 48.7482 85.5756 48.7714 85.5641C50.0386 87.0602 51.3696 88.516 52.7704 89.9313C52.3694 90.0699 51.9683 90.2085 51.5672 90.3414C51.3871 90.1334 51.2011 89.9255 51.0267 89.7175C50.3815 89.9255 49.7305 90.1219 49.0795 90.3067C49.0446 90.5782 49.0097 90.8555 48.9749 91.127C48.5796 91.2368 48.1902 91.3408 47.7949 91.4447C48.1785 89.4864 48.4866 87.5339 48.7075 85.5872H48.7017ZM50.3989 88.9723C50.0269 88.516 49.6666 88.0538 49.3062 87.5917C49.2655 88.1751 49.2132 88.7644 49.1609 89.3478C49.5736 89.2265 49.9862 89.0994 50.3989 88.9723Z" fill="#112264"/>
<path d="M42.0928 86.7945C42.1276 86.7945 42.1625 86.7887 42.1974 86.7829C43.2785 87.6725 44.412 88.5275 45.5977 89.3478C45.4234 88.4004 45.249 87.4588 45.0746 86.5114C45.4117 86.4479 45.743 86.3843 46.0802 86.3208C46.4464 88.0942 46.8067 89.8677 47.1729 91.6469C47.138 91.6527 47.1032 91.6584 47.0683 91.67C45.8186 90.8844 44.6212 90.0525 43.4762 89.1918C43.6157 90.1334 43.7493 91.075 43.8888 92.0166C43.5168 92.0686 43.1507 92.1206 42.7787 92.1668C42.552 90.3818 42.3253 88.591 42.0986 86.806L42.0928 86.7945Z" fill="#112264"/>
<path d="M54.3398 83.9351C54.6886 83.8022 55.0373 83.6694 55.3861 83.525C56.0487 85.1424 56.7055 86.7599 57.3624 88.3716C56.9787 88.5276 56.6009 88.672 56.2173 88.8222C55.5895 87.1932 54.9676 85.5641 54.3398 83.9293V83.9351Z" fill="#112264"/>
<path d="M56.9443 82.6815C56.9734 82.67 57.0083 82.6526 57.0431 82.6411C58.351 83.1725 59.7053 83.6578 61.1003 84.0853C60.6585 83.2303 60.211 82.3754 59.7692 81.5262C60.0773 81.3644 60.3854 81.2027 60.6934 81.041C61.5595 82.6353 62.4314 84.2239 63.2974 85.8183C63.2626 85.8356 63.2335 85.8529 63.1986 85.8703C61.7513 85.489 60.3389 85.0557 58.9729 84.5705C59.3798 85.4312 59.7867 86.292 60.1935 87.1527C59.8506 87.3144 59.5019 87.4704 59.1531 87.6264C58.4149 85.98 57.6825 84.3337 56.9443 82.6873V82.6815Z" fill="#112264"/>
<path d="M6.02592 88.2272C5.21216 87.7824 4.2996 88.0308 3.81134 88.8568C3.32309 89.6829 3.57884 90.5898 4.45653 91.0693C4.97385 91.3523 5.59579 91.4274 6.31073 91.2946C6.07242 91.6932 5.82829 92.0918 5.58998 92.4904C5.00872 92.5308 4.38097 92.3864 3.82297 92.0802C3.20684 91.7452 2.73603 91.2426 2.46284 90.6591C2.08502 89.8273 2.14315 88.9377 2.61978 88.1636C3.02665 87.4993 3.64859 87.0661 4.36935 86.8928C5.09591 86.7195 5.85735 86.8234 6.53742 87.1989C7.06636 87.4877 7.47323 87.8863 7.77549 88.412C7.53136 88.7875 7.28142 89.163 7.03729 89.5385C6.82804 88.9146 6.51417 88.4871 6.03754 88.2272H6.02592Z" fill="#112264"/>
<path d="M9.55509 89.6251C10.241 89.3824 10.985 89.4113 11.6534 89.6944C12.316 89.9832 12.8508 90.4973 13.1472 91.1732C13.4495 91.8491 13.4611 92.5943 13.1879 93.3221C12.9554 93.9287 12.566 94.4082 12.0138 94.7085C11.2465 95.1418 10.2817 95.1764 9.42722 94.8125C8.70065 94.5006 8.13103 93.9345 7.85202 93.2297C7.5614 92.5019 7.59046 91.7624 7.9334 91.0635C8.27634 90.3645 8.84015 89.8792 9.56091 89.6251H9.55509ZM9.89803 93.7265C10.6769 94.0616 11.5546 93.6861 11.9034 92.8196C12.2521 91.9473 11.9092 91.0866 11.1826 90.7746C10.4502 90.4569 9.57834 90.8093 9.18309 91.6527C8.79365 92.4903 9.11334 93.3915 9.89803 93.7265Z" fill="#112264"/>
<path d="M15.6804 91.439C16.1105 91.5892 16.5465 91.7336 16.9824 91.8723C17.6276 92.0802 18.1159 92.2708 18.4646 92.7156C18.7727 93.0969 18.8715 93.5764 18.7494 94.0096C18.5751 94.6393 18.0868 95.0379 17.3544 95.113C17.6857 95.991 18.0345 96.8691 18.4065 97.7471C17.9008 97.6085 17.3951 97.4699 16.8894 97.3197C16.593 96.5167 16.3082 95.7137 16.0466 94.9108C15.9885 94.8934 15.9245 94.8703 15.8664 94.853C15.6514 95.5058 15.4421 96.1528 15.227 96.8055C14.8027 96.6669 14.3784 96.5283 13.9541 96.3781C14.5295 94.7317 15.1108 93.0854 15.6862 91.4332L15.6804 91.439ZM16.5523 92.7388C16.4012 93.1951 16.2501 93.6572 16.0989 94.1136C16.1861 94.1425 16.2791 94.1714 16.3663 94.2003C17.0115 94.4024 17.4242 94.2465 17.5579 93.7959C17.709 93.2933 17.4242 93.016 16.7499 92.8023C16.6802 92.7792 16.6104 92.7561 16.5465 92.7388H16.5523Z" fill="#112264"/>
<path d="M20.9986 93.0102C21.4403 93.12 21.8821 93.224 22.3238 93.3222C22.9923 93.4724 23.4805 93.6283 23.8642 94.0442C24.2013 94.4024 24.3408 94.8876 24.2594 95.3498C24.0734 96.3665 23.126 96.9037 21.7484 96.5975C21.6612 96.5802 21.5798 96.5571 21.4926 96.534C21.3531 97.1579 21.2078 97.776 21.0683 98.3999C20.6208 98.3017 20.1732 98.1919 19.7314 98.0821C20.1558 96.3896 20.5743 94.697 20.9986 93.0045V93.0102ZM22.0158 94.2349C21.9111 94.6912 21.8065 95.1418 21.7077 95.5982C21.7891 95.6155 21.8646 95.6328 21.946 95.6502C22.6028 95.7946 22.9981 95.6097 23.0853 95.1649C23.1841 94.6797 22.876 94.4255 22.1901 94.2695C22.132 94.258 22.0739 94.2464 22.0216 94.2291L22.0158 94.2349Z" fill="#112264"/>
<path d="M26.4459 94.7144C27.0214 94.2869 27.7305 94.0963 28.4396 94.1829C29.1487 94.2638 29.7881 94.6104 30.2647 95.1708C30.7414 95.7311 30.9622 96.4416 30.9041 97.2157C30.8576 97.8627 30.6193 98.4346 30.1892 98.8794C29.5847 99.5148 28.6837 99.821 27.7828 99.717C27.0097 99.6246 26.318 99.2491 25.853 98.6541C25.3764 98.0418 25.1962 97.3255 25.3241 96.5572C25.452 95.7889 25.8472 95.1592 26.4459 94.7144ZM27.9165 98.5443C28.7419 98.6425 29.4684 98.0302 29.5556 97.1059C29.6428 96.1701 29.079 95.4423 28.3001 95.3498C27.5212 95.2574 26.8005 95.8408 26.6668 96.7651C26.5331 97.6778 27.0911 98.4461 27.9223 98.5443H27.9165Z" fill="#112264"/>
<path d="M32.7295 94.7028C33.1829 94.7259 33.6305 94.7375 34.0838 94.749C34.7523 94.7664 35.2754 94.8126 35.7288 95.1361C36.1299 95.4134 36.3624 95.8466 36.3682 96.2972C36.374 96.9557 36.031 97.4699 35.3568 97.7529C35.9206 98.5039 36.5019 99.2433 37.1005 99.9827C36.5774 99.9943 36.0601 100 35.537 100C35.0255 99.3126 34.5314 98.6252 34.0548 97.9262C33.9908 97.9262 33.9269 97.9262 33.8688 97.9262C33.8513 98.6136 33.8339 99.2953 33.8165 99.9827C33.3747 99.9712 32.933 99.9538 32.4912 99.9365C32.5726 98.1919 32.654 96.4532 32.7353 94.7086L32.7295 94.7028ZM33.9269 95.7022C33.9153 96.1874 33.9037 96.6669 33.892 97.1521C33.985 97.1521 34.078 97.1521 34.171 97.1579C34.8337 97.1695 35.1882 96.9037 35.1882 96.43C35.1882 95.9044 34.8395 95.7195 34.142 95.708C34.0722 95.708 34.0025 95.708 33.9269 95.708V95.7022Z" fill="#112264"/>
<path d="M38.2285 94.7086C39.3096 94.6624 40.3907 94.5815 41.466 94.4775C41.5009 94.8357 41.5358 95.1938 41.5707 95.552C40.8848 95.6213 40.1989 95.6733 39.513 95.7195C39.5363 96.0315 39.5537 96.3492 39.577 96.6611C40.1757 96.6207 40.7685 96.5745 41.3672 96.5167C41.4021 96.8749 41.437 97.2272 41.466 97.5854C40.8615 97.6432 40.2512 97.6894 39.6467 97.7298C39.67 98.0764 39.6932 98.4172 39.7165 98.7638C40.4489 98.7176 41.1812 98.6541 41.9078 98.5848C41.9427 98.9487 41.9834 99.3126 42.0182 99.6823C40.8325 99.7979 39.6467 99.8845 38.461 99.9365C38.3796 98.1919 38.304 96.4532 38.2227 94.7086H38.2285Z" fill="#112264"/>
<path d="M48.1547 97.8164C48.6371 97.724 48.8696 97.4409 48.8115 97.1637C48.7359 96.8113 48.3465 96.7419 47.7304 96.5455C47.5909 96.5051 47.4572 96.4647 47.3235 96.4185C46.533 96.1701 46.1203 95.7484 46.0157 95.136C45.882 94.3273 46.44 93.6052 47.463 93.403C47.8524 93.3222 48.3 93.3279 48.8289 93.3857C48.9219 93.7843 49.0091 94.1829 49.1021 94.5815C48.4628 94.3677 47.9803 94.3157 47.6955 94.3735C47.3351 94.4428 47.1549 94.645 47.2014 94.8992C47.2363 95.0725 47.3874 95.2111 47.6606 95.292C47.8931 95.3613 48.1256 95.4306 48.3581 95.4942C49.2242 95.7426 49.8694 95.9852 50.0612 96.7997C50.2879 97.7529 49.6892 98.6483 48.393 98.9082C47.9571 98.9949 47.4398 99.0006 46.8411 98.9429C46.7248 98.4923 46.6028 98.0359 46.4865 97.5853C47.1084 97.8106 47.6199 97.9262 48.1547 97.8164Z" fill="#112264"/>
<path d="M52.6077 92.1437C52.6077 92.1437 52.66 92.1264 52.689 92.1206C54.0492 93.5937 55.4849 95.0263 56.9903 96.4127C56.5311 96.5686 56.0719 96.7246 55.6127 96.869C55.4209 96.6668 55.2233 96.4589 55.0315 96.2567C54.2933 96.4878 53.5493 96.7073 52.8053 96.9095C52.753 97.1867 52.7007 97.464 52.6484 97.7413C52.2008 97.8626 51.7532 97.9781 51.3057 98.0879C51.823 96.1065 52.2589 94.1251 52.6077 92.1437ZM54.363 95.5173C53.9678 95.0667 53.5784 94.6103 53.1947 94.154C53.1192 94.749 53.032 95.344 52.9448 95.9332C53.4214 95.8003 53.8922 95.6617 54.363 95.5173Z" fill="#112264"/>
<path d="M56.3037 90.9133C56.3386 90.9018 56.3793 90.8845 56.4141 90.8729C57.8092 91.4448 59.2507 91.9647 60.7329 92.4326C60.3492 91.5488 59.9598 90.6707 59.5762 89.7869C59.9365 89.6309 60.2969 89.4692 60.6573 89.3074C61.4187 90.9538 62.1744 92.6001 62.9358 94.2465C62.8951 94.2638 62.8602 94.2812 62.8196 94.2985C61.2792 93.8768 59.7854 93.4031 58.3323 92.8716C58.681 93.7555 59.0298 94.6451 59.3785 95.5289C58.9775 95.6849 58.5822 95.8351 58.1812 95.9795C57.5534 94.2869 56.9257 92.6001 56.3037 90.9076V90.9133Z" fill="#112264"/>
<path d="M63.1805 88.7817C63.4072 88.0943 63.8897 87.5282 64.5349 87.17C65.18 86.8176 65.9241 86.7136 66.6506 86.8869C67.383 87.0602 67.9875 87.4993 68.3944 88.1636C68.7373 88.7182 68.8768 89.3189 68.7722 89.9428C68.6385 90.8151 68.0573 91.6065 67.2377 92.0571C66.5402 92.4383 65.7322 92.5423 64.9999 92.3344C64.2442 92.1206 63.6688 91.6412 63.3259 90.9422C62.9771 90.2432 62.9364 89.5038 63.1805 88.7817ZM66.6681 91.0173C67.4237 90.6071 67.6678 89.6771 67.197 88.8741C66.7204 88.0654 65.8194 87.8112 65.1103 88.1983C64.4012 88.5853 64.1454 89.4865 64.5755 90.3125C64.9999 91.1328 65.9241 91.4274 66.6739 91.0173H66.6681Z" fill="#112264"/>
<path d="M70.7733 59.881L71 58.743L69.8549 58.5062C69.4481 58.4195 69.0237 58.3791 68.5994 58.3849C69.5062 56.9349 69.7794 55.1384 69.4016 53.0357L69.1923 51.8919L68.0414 52.0825C67.5706 52.1634 67.1114 52.3078 66.6639 52.4984C66.8557 52.0998 67.0184 51.6666 67.123 51.1871C67.5299 49.3732 67.0824 47.4785 65.8036 45.5491L65.1584 44.5786L64.1761 45.2083C62.7404 46.1268 61.6651 47.7385 61.2989 49.5234C61.0257 50.8521 61.0141 52.8855 62.5021 55.0575L63.1008 55.9298C62.5777 57.0447 62.2173 58.5639 62.5951 60.476L62.8043 61.5447C62.3219 62.2841 61.915 63.1911 61.7 64.3406L61.4965 65.4208C60.5491 66.0447 59.5726 67.021 58.8693 68.5518L58.4159 69.5338C57.9276 69.6783 57.4161 69.8689 56.893 70.1462L55.8991 70.6718L55.9107 70.695C55.8642 70.7123 55.8235 70.7296 55.777 70.7527L36.0551 81.5435C35.7122 81.7342 35.2937 81.7342 34.9449 81.5435L15.223 70.7527C15.1823 70.7296 15.1358 70.7123 15.0893 70.695L15.1009 70.6718L14.107 70.1462C13.5839 69.8689 13.0724 69.6783 12.5841 69.5338L12.1307 68.5518C11.4274 67.021 10.4509 66.0447 9.50348 65.4208L9.30004 64.3406C9.08498 63.1911 8.6781 62.2841 8.19566 61.5447L8.40491 60.476C8.77691 58.5639 8.42235 57.0447 7.89922 55.9298L8.49791 55.0575C9.98592 52.8855 9.97429 50.8463 9.70111 49.5234C9.33492 47.7442 8.2596 46.1325 6.8239 45.2083L5.84159 44.5786L5.1964 45.5491C3.91764 47.4785 3.47008 49.3732 3.87695 51.1871C3.98158 51.6666 4.14433 52.0998 4.33614 52.4984C3.88858 52.3078 3.42358 52.1634 2.95858 52.0825L1.8077 51.8919L1.59844 53.0357C1.22063 55.1384 1.49382 56.9349 2.40057 58.3849C1.97626 58.3849 1.55194 58.4253 1.14507 58.5062L0 58.743L0.226688 59.881C0.66844 62.0819 1.65076 63.7052 3.15039 64.7219C3.02833 64.7739 2.90045 64.8201 2.7842 64.8778L1.73795 65.3862L2.23782 66.4318C3.23758 68.5171 4.6384 69.8804 6.4054 70.4754C6.44609 70.487 6.49259 70.4985 6.53328 70.5159C5.63815 71.1398 4.89996 71.96 4.43496 72.8843L3.91183 73.9241L4.95227 74.4556C6.37053 75.1777 7.73066 75.5127 9.01523 75.4607C9.60811 75.4376 10.1777 75.3278 10.7357 75.143C12.0668 74.6924 13.0317 73.8432 13.6652 73.1038C13.7234 73.15 13.7815 73.1963 13.8512 73.2309L34.9391 84.7669C35.282 84.9576 35.7005 84.9576 36.0493 84.7669L57.1371 73.2309C57.2069 73.1963 57.265 73.15 57.3231 73.1038C57.9567 73.8432 58.9158 74.6924 60.2526 75.143C60.8106 75.3336 61.3861 75.4376 61.9732 75.4607C63.2577 75.5127 64.6179 75.1777 66.0361 74.4556L67.0765 73.9241L66.5534 72.8843C66.0884 71.96 65.3502 71.1398 64.4551 70.5159C64.4958 70.5043 64.5423 70.4928 64.583 70.4754C66.3558 69.8804 67.7566 68.5229 68.7506 66.4318L69.2504 65.3862L68.2042 64.8778C68.0879 64.8201 67.9601 64.7739 67.838 64.7219C69.3318 63.711 70.3199 62.0877 70.7617 59.881H70.7733ZM6.51584 48.0619C6.94597 48.6107 7.25984 49.2808 7.40516 49.9856C7.53885 50.6268 7.57372 51.5222 7.19591 52.5389C6.78903 52.0767 6.37053 51.4413 6.20196 50.6557C6.02759 49.8469 6.13222 48.9804 6.52165 48.0619H6.51584ZM5.39402 56.2475C5.77184 56.7847 6.16128 57.5935 6.21359 58.6795C5.65559 58.4137 5.02202 57.992 4.55121 57.3393C4.06877 56.6634 3.82464 55.8258 3.81883 54.8322C4.42914 55.1673 4.98715 55.664 5.39984 56.2475H5.39402ZM4.94646 61.5043C5.49284 61.8682 6.15546 62.4805 6.60303 63.4683C6.00434 63.4163 5.2429 63.2661 4.56283 62.8213C3.86533 62.3708 3.33058 61.6776 2.95858 60.7533C3.65027 60.8457 4.35358 61.0999 4.95227 61.4985L4.94646 61.5043ZM5.09758 66.6224C5.78928 66.5415 6.53328 66.6224 7.21334 66.865C7.83528 67.0845 8.62579 67.5178 9.30004 68.367C8.69554 68.4709 7.9341 68.494 7.18428 68.2456C6.38797 67.9799 5.69046 67.4369 5.09758 66.6224ZM9.99754 72.9074C9.20704 73.1789 8.31772 73.1674 7.35284 72.8785C7.85272 72.3933 8.4921 72.012 9.17798 71.7925C9.80573 71.5903 10.7009 71.4575 11.7529 71.7232C11.3402 72.168 10.759 72.6475 9.99754 72.9074ZM66.4779 57.3335C66.007 57.992 65.3735 58.408 64.8155 58.6737C64.8678 57.5935 65.2572 56.7847 65.635 56.2417C66.0477 55.6525 66.5999 55.1615 67.216 54.8264C67.2102 55.82 66.9661 56.6576 66.4837 57.3335H66.4779ZM63.6239 49.9798C63.7692 49.2808 64.0831 48.605 64.5132 48.0562C64.9027 48.9689 65.0073 49.8354 64.8329 50.6499C64.6585 51.4355 64.2458 52.071 63.839 52.5331C63.4612 51.5164 63.496 50.621 63.6297 49.9798H63.6239ZM61.0315 72.9074C60.2701 72.6475 59.6888 72.1738 59.2761 71.7232C60.334 71.4575 61.2291 71.5903 61.8511 71.7925C62.537 72.012 63.1763 72.3991 63.6762 72.8785C62.7113 73.1674 61.822 73.1731 61.0315 72.9074ZM63.8448 68.2456C63.095 68.4998 62.3277 68.4767 61.729 68.367C62.4033 67.5178 63.1996 67.0845 63.8157 66.865C64.4958 66.6224 65.234 66.5473 65.9315 66.6224C65.3386 67.4311 64.6411 67.9741 63.8448 68.2456ZM66.4662 62.8271C65.7862 63.2661 65.0247 63.4163 64.426 63.4741C64.8736 62.4863 65.5362 61.874 66.0826 61.51C66.6813 61.1115 67.3788 60.8573 68.0763 60.7649C67.7043 61.6891 67.1695 62.3765 66.472 62.8329L66.4662 62.8271Z" fill="#112264"/>
<path d="M68 32.7133H57.1771V30.1254C57.1771 29.5997 56.8981 29.1144 56.4447 28.8487C55.9914 28.583 55.4276 28.5772 54.9684 28.8314L47.6504 32.8635L44.1513 8.49749C44.0118 7.16885 43.6688 6.00196 43.1283 5.02571C41.4426 1.97562 37.9784 0 34.3048 0H20.2908C18.8028 0 17.4485 0.594997 16.4488 1.55393C15.8675 0.646987 14.7457 0 13.6646 0C11.4558 0 9.65973 1.8081 9.65973 4.03212V7.07065C9.65973 7.88516 10.3282 8.54948 11.1477 8.54948C11.9673 8.54948 12.6357 7.88516 12.6357 7.07065V4.03212C12.6357 3.4429 13.0949 2.95766 13.6587 2.95766C14.2226 2.95766 14.6818 3.85304 14.6818 4.44226V5.21056C14.6818 5.26255 14.6934 5.30876 14.6992 5.35498C14.6992 5.45318 14.6818 5.55138 14.6818 5.64959V8.08734C14.6818 10.6868 16.4313 12.8878 18.8028 13.5405L18.8435 19.2132C18.8435 19.5252 18.9481 19.8313 19.14 20.0855L23.2029 25.5156C23.5865 26.0297 24.255 26.2377 24.8653 26.0355C25.4756 25.8333 25.8883 25.2672 25.8883 24.6317V15.3948C25.8883 13.7947 27.1554 12.4892 28.719 12.4892C29.0038 12.4892 29.2828 12.5296 29.5502 12.6163C30.1721 12.8127 30.6894 13.2575 31.0091 13.8756C31.3753 14.5745 31.4509 15.4064 31.2184 16.1689L23.976 33.1754L16.0477 28.8025C15.5885 28.5483 15.0247 28.5541 14.5713 28.8198C14.1179 29.0856 13.8389 29.5708 13.8389 30.0965V32.6844H3.02764C2.3127 32.6844 1.73145 33.2621 1.73145 33.9726C1.73145 34.6832 2.3127 35.2608 3.02764 35.2608H13.8506V36.9534H6.0734C5.35846 36.9534 4.77721 37.5311 4.77721 38.2416C4.77721 38.9521 5.35846 39.5298 6.0734 39.5298H13.8506V41.2223H9.1831C8.46816 41.2223 7.88691 41.8 7.88691 42.5105C7.88691 43.2211 8.46816 43.7987 9.1831 43.7987H13.8506V65.6808C13.8506 66.218 14.1412 66.7148 14.6178 66.9748L34.7931 78.1006C35.0198 78.2219 35.2639 78.2855 35.5138 78.2855C35.7638 78.2855 36.0137 78.2219 36.2346 78.1006L56.4099 66.9748C56.8807 66.7148 57.1771 66.218 57.1771 65.6808V43.7987H61.8446C62.5595 43.7987 63.1408 43.2211 63.1408 42.5105C63.1408 41.8 62.5595 41.2223 61.8446 41.2223H57.1771V39.5298H64.9543C65.6692 39.5298 66.2505 38.9521 66.2505 38.2416C66.2505 37.5311 65.6692 36.9534 64.9543 36.9534H57.1771V35.2608H68C68.715 35.2608 69.2962 34.6832 69.2962 33.9726C69.2962 33.2621 68.715 32.6844 68 32.6844V32.7133Z" fill="#112264"/>
<path d="M49.8707 47.6056C49.5394 47.4034 49.1267 47.3803 48.7722 47.5421L38.2108 52.3714C38.0713 52.4349 37.9434 52.5273 37.8388 52.6429L35.5138 55.2077L33.1888 52.6429C33.0842 52.5273 32.9621 52.4349 32.8168 52.3714L22.2554 47.5421C21.9009 47.3803 21.4882 47.4034 21.1569 47.6056C20.8256 47.8078 20.6279 48.1602 20.6279 48.5356V65.6808C20.6279 66.0736 20.843 66.4318 21.1859 66.634L34.9326 74.496C34.9326 74.496 34.9326 74.496 34.9384 74.496C34.9384 74.496 34.9384 74.496 34.9442 74.5018C35.1186 74.6 35.3162 74.6462 35.508 74.6462C35.6998 74.6462 35.8974 74.6 36.0718 74.5018C36.0718 74.5018 36.0718 74.5018 36.0776 74.496C36.0834 74.4902 36.0776 74.496 36.0834 74.496L49.8301 66.634C50.1788 66.4376 50.3939 66.0736 50.3939 65.6808V48.5356C50.3939 48.1602 50.1962 47.8078 49.8649 47.6056H49.8707ZM22.9064 50.2802L31.631 54.2719L34.3746 57.2989V71.6135L22.9064 65.0569V50.286V50.2802ZM48.1212 65.0512L36.6531 71.6077V57.2931L39.3966 54.2661L40.5881 53.7231V59.4131C40.5881 59.7828 40.809 60.089 41.1636 60.2161C41.5065 60.3432 41.9018 60.2392 42.1401 59.9677L43.2619 58.691L44.6104 59.0088C44.8778 59.0723 45.151 59.0145 45.366 58.8528C45.5811 58.691 45.7032 58.4426 45.7032 58.1769V51.3778L48.1154 50.2744V65.0454L48.1212 65.0512Z" fill="white"/>
<path d="M35.5133 31.8988C30.7471 31.8988 26.8701 35.7518 26.8701 40.4887C26.8701 45.2256 30.7471 49.0786 35.5133 49.0786C40.2796 49.0786 44.1566 45.2256 44.1566 40.4887C44.1566 35.7518 40.2796 31.8988 35.5133 31.8988ZM38.6812 46.1383C38.2162 46.3983 37.7221 46.6004 37.1932 46.7449C37.7105 45.2949 37.9488 43.1344 36.6468 40.5176C37.1815 39.732 37.7686 39.1716 38.3499 38.773C39.8146 42.1351 38.9253 45.3873 38.6812 46.1383ZM29.0149 40.0843C29.0382 39.7204 29.0789 39.3623 29.1603 39.0157C30.1891 40.1537 31.9677 41.3957 34.8042 41.5112C35.2169 42.3546 35.4145 43.1287 35.4785 43.8161C31.7236 43.2211 29.416 40.5754 29.0149 40.0786V40.0843ZM38.7277 34.8622C39.2217 35.1395 39.6867 35.463 40.0878 35.8558C38.5533 36.1216 36.4957 36.9707 34.874 39.4085C33.973 39.3623 33.2116 39.189 32.5896 38.9232C34.9844 35.6999 38.7044 34.9662 38.7451 34.9604L38.7277 34.868V34.8622ZM35.5133 40.5927V40.5696L35.5308 40.5811L35.5133 40.5927ZM35.2925 34.0131C33.8684 34.7409 32.2002 35.9078 30.8575 37.7448C30.5204 37.3982 30.2763 37.0747 30.1251 36.8205C31.2644 35.1742 33.1535 34.0824 35.2925 34.0131ZM29.8578 43.6948C31.183 44.6421 32.9965 45.5664 35.2576 45.9015C35.1181 46.3347 34.9495 46.6755 34.8042 46.9182C32.6768 46.6871 30.8749 45.4567 29.8578 43.6948ZM41.2677 43.5099C41.3491 41.9271 41.1631 39.963 40.2796 37.947C40.7679 37.843 41.1864 37.8257 41.4654 37.8314C41.8374 38.646 42.0524 39.5413 42.0524 40.4887C42.0524 41.5863 41.7502 42.603 41.2677 43.5099Z" fill="white"/>
<path d="M20.9245 7.03601C20.0352 7.03601 19.3145 7.76965 19.3145 8.67081C19.3145 9.57197 20.0352 10.3056 20.9245 10.3056C21.8138 10.3056 22.5346 9.57197 22.5346 8.67081C22.5346 7.76965 21.8138 7.03601 20.9245 7.03601Z" fill="white"/>
</svg>
