<svg width="89" height="41" viewBox="0 0 89 41" fill="none" xmlns="http://www.w3.org/2000/svg">
<path d="M4.65117 33.2766C4.65117 33.2766 4.67095 33.2861 4.68084 33.2908C4.68084 33.8166 4.69321 34.3448 4.72535 34.8753C5.16551 34.5626 5.59331 34.2382 6.00627 33.9042C6.01616 33.909 6.02853 33.9137 6.04089 33.9184C5.8579 34.6479 5.68728 35.3821 5.52902 36.1187C5.3757 36.0571 5.22239 35.9932 5.06907 35.9269C5.15068 35.6048 5.23475 35.2827 5.31883 34.9629C4.99489 35.2092 4.66353 35.4484 4.32476 35.6853C4.31487 35.6806 4.30497 35.6758 4.29261 35.6711C4.26294 35.259 4.24315 34.8516 4.23326 34.4419C4.01813 34.7095 3.80299 34.9748 3.58539 35.2377C3.44444 35.1666 3.30596 35.0955 3.16748 35.0221C3.67441 34.4466 4.16897 33.864 4.65364 33.2719L4.65117 33.2766Z" fill="#EB2D4B"/>
<path d="M6.93319 34.3519C7.31647 34.494 7.69976 34.6267 8.08799 34.7498C8.04101 34.8896 7.99155 35.0293 7.94457 35.1714C7.69729 35.0933 7.45248 35.0127 7.20767 34.9251C7.16068 35.0459 7.1137 35.169 7.06919 35.2898C7.28185 35.3656 7.49699 35.4367 7.71212 35.5054C7.66267 35.6451 7.61568 35.7825 7.56623 35.9222C7.34615 35.8512 7.12854 35.7777 6.91093 35.7019C6.859 35.8346 6.80954 35.9672 6.75762 36.0998C7.01973 36.1922 7.28432 36.2798 7.54892 36.3627C7.49946 36.5048 7.45 36.6493 7.40302 36.7914C6.97275 36.6564 6.54495 36.5096 6.11963 36.3509C6.39164 35.6854 6.66365 35.0175 6.93319 34.3519Z" fill="#EB2D4B"/>
<path d="M8.73589 34.8706C8.75073 34.8753 8.76309 34.8777 8.77793 34.8824C9.04994 35.394 9.34668 35.9009 9.66814 36.403C9.76211 36.0193 9.85608 35.6356 9.95005 35.2519C10.091 35.2827 10.2319 35.3135 10.3754 35.3443C10.2122 36.069 10.049 36.7961 9.88575 37.5209C9.87091 37.5185 9.85608 37.5138 9.84124 37.5114C9.4901 37.0117 9.16369 36.5048 8.86448 35.9932C8.75568 36.3698 8.64934 36.744 8.54054 37.1206C8.38723 37.0804 8.23144 37.0377 8.07812 36.9951C8.29821 36.2869 8.51581 35.5788 8.73589 34.8706Z" fill="#EB2D4B"/>
<path d="M11.2705 37.2914C11.451 37.3198 11.5722 37.244 11.592 37.128C11.6142 36.9811 11.4881 36.903 11.3002 36.7443C11.2582 36.7111 11.2161 36.6756 11.1765 36.6424C10.9367 36.4411 10.8477 36.2232 10.8971 35.9745C10.9639 35.643 11.2606 35.4393 11.6414 35.4985C11.7873 35.5198 11.9431 35.5814 12.1187 35.6738C12.0964 35.8395 12.0717 36.0053 12.0495 36.1735C11.859 36.0053 11.6934 35.9201 11.587 35.9035C11.4535 35.8845 11.3595 35.9366 11.3422 36.0409C11.3299 36.1119 11.3645 36.1853 11.4486 36.254C11.5203 36.3109 11.592 36.3701 11.6637 36.4269C11.9308 36.6401 12.1236 36.8201 12.0791 37.1611C12.0297 37.5614 11.6934 37.8219 11.2038 37.7485C11.0381 37.7224 10.8551 37.6561 10.6548 37.5543C10.677 37.3648 10.6993 37.173 10.7216 36.9835C10.907 37.1517 11.0727 37.2653 11.273 37.2961L11.2705 37.2914Z" fill="#EB2D4B"/>
<path d="M14.3888 37.5733C14.5717 37.5781 14.683 37.4881 14.6855 37.372C14.688 37.2228 14.552 37.1612 14.3442 37.0286C14.2997 37.0002 14.2528 36.9718 14.2082 36.941C13.9437 36.7704 13.8274 36.5667 13.8423 36.311C13.862 35.9746 14.1291 35.7354 14.5149 35.7449C14.6608 35.7496 14.824 35.7899 15.0094 35.861C15.0094 36.0291 15.0094 36.1973 15.0094 36.3631C14.7968 36.221 14.6237 36.1546 14.5173 36.1523C14.3813 36.1499 14.2973 36.2115 14.2948 36.3181C14.2923 36.3915 14.3368 36.4578 14.4283 36.517C14.505 36.5667 14.5841 36.6141 14.6632 36.6615C14.955 36.8391 15.1726 36.9954 15.1726 37.3389C15.1751 37.7415 14.8784 38.0423 14.3838 38.0281C14.2157 38.0233 14.0277 37.9807 13.8151 37.9025C13.8101 37.7107 13.8076 37.5189 13.8052 37.3294C14.0129 37.4739 14.1885 37.5662 14.3937 37.571L14.3888 37.5733Z" fill="#EB2D4B"/>
<path d="M16.4756 35.7184C16.4756 35.7184 16.4954 35.7184 16.5053 35.7184C16.8787 36.436 17.2842 37.1418 17.7244 37.8381C17.5439 37.8571 17.3658 37.8737 17.1853 37.8879C17.1309 37.7884 17.0765 37.6889 17.0221 37.5871C16.7353 37.6084 16.446 37.625 16.1566 37.6368C16.1146 37.7434 16.0726 37.8476 16.0305 37.9542C15.8574 37.9613 15.6843 37.966 15.5112 37.9684C15.8648 37.2247 16.1863 36.4739 16.4732 35.7184H16.4756ZM16.8391 37.2294C16.7303 37.0115 16.6265 36.7937 16.5251 36.5758C16.4484 36.8055 16.3693 37.0329 16.2902 37.2626C16.4732 37.2531 16.6561 37.2437 16.8416 37.2294H16.8391Z" fill="#EB2D4B"/>
<path d="M20.7193 35.091C20.7193 35.091 20.739 35.0863 20.7489 35.0815C21.288 35.695 21.8543 36.2918 22.4502 36.8721C22.2796 36.9289 22.109 36.9858 21.9384 37.0402C21.8617 36.955 21.7826 36.8697 21.7084 36.7844C21.4339 36.8697 21.1569 36.9502 20.88 37.026C20.8652 37.1373 20.8503 37.251 20.8355 37.3623C20.6673 37.4073 20.5016 37.45 20.3335 37.4926C20.4967 36.6897 20.6278 35.8892 20.7217 35.091H20.7193ZM21.4413 36.4789C21.2831 36.2918 21.1297 36.1023 20.9764 35.9129C20.9591 36.1521 20.9369 36.3937 20.9146 36.6329C21.0902 36.5831 21.2657 36.531 21.4413 36.4789Z" fill="#EB2D4B"/>
<path d="M17.9077 35.5862C17.9226 35.5862 17.9374 35.5838 17.9522 35.5814C18.4122 35.9462 18.8944 36.2967 19.3988 36.633C19.3246 36.2446 19.2505 35.8586 19.1763 35.4701C19.3197 35.4441 19.4606 35.418 19.6041 35.392C19.7599 36.1191 19.9132 36.8462 20.069 37.5757C20.0541 37.578 20.0393 37.5804 20.0244 37.5851C19.4928 37.263 18.9834 36.922 18.4962 36.5691C18.5556 36.9551 18.6125 37.3412 18.6718 37.7272C18.5136 37.7486 18.3578 37.7699 18.1995 37.7888C18.1031 37.057 18.0066 36.3228 17.9102 35.5909L17.9077 35.5862Z" fill="#EB2D4B"/>
<path d="M23.1177 34.4135C23.266 34.359 23.4144 34.3046 23.5628 34.2454C23.8447 34.9085 24.1241 35.5717 24.4035 36.2325C24.2403 36.2964 24.0796 36.3556 23.9164 36.4172C23.6493 35.7493 23.3847 35.0814 23.1177 34.4112V34.4135Z" fill="#EB2D4B"/>
<path d="M24.2256 33.8997C24.238 33.8949 24.2528 33.8878 24.2676 33.8831C24.824 34.101 25.4002 34.3 25.9936 34.4752C25.8057 34.1247 25.6153 33.7742 25.4274 33.426C25.5584 33.3597 25.6895 33.2934 25.8206 33.2271C26.189 33.8807 26.5599 34.5321 26.9284 35.1857C26.9135 35.1929 26.9012 35.2 26.8863 35.2071C26.2706 35.0507 25.6697 34.8731 25.0886 34.6742C25.2617 35.0271 25.4348 35.38 25.6079 35.7329C25.462 35.7992 25.3136 35.8631 25.1653 35.9271C24.8512 35.2521 24.5396 34.5771 24.2256 33.9021V33.8997Z" fill="#EB2D4B"/>
<path d="M2.56379 36.1731C2.2176 35.9908 1.82937 36.0926 1.62165 36.4313C1.41394 36.77 1.52274 37.1418 1.89613 37.3384C2.11622 37.4545 2.38081 37.4853 2.68496 37.4308C2.58358 37.5942 2.47972 37.7576 2.37833 37.921C2.13105 37.9376 1.86399 37.8784 1.6266 37.7529C1.36448 37.6155 1.16418 37.4095 1.04796 37.1702C0.887226 36.8292 0.911954 36.4645 1.11473 36.1471C1.28782 35.8747 1.55241 35.6971 1.85904 35.626C2.16814 35.555 2.49208 35.5976 2.7814 35.7516C3.00643 35.87 3.17953 36.0334 3.30811 36.2489C3.20425 36.4029 3.09792 36.5568 2.99406 36.7108C2.90504 36.455 2.77151 36.2797 2.56874 36.1731H2.56379Z" fill="#EB2D4B"/>
<path d="M4.06493 36.7463C4.35672 36.6468 4.67324 36.6586 4.95761 36.7747C5.23952 36.8931 5.46701 37.1039 5.59313 37.381C5.72171 37.6581 5.72666 37.9636 5.61044 38.2621C5.51152 38.5108 5.34585 38.7073 5.11093 38.8305C4.78452 39.0081 4.37403 39.0223 4.01053 38.8731C3.70142 38.7452 3.45909 38.5131 3.34039 38.2242C3.21675 37.9258 3.22912 37.6226 3.37501 37.336C3.52091 37.0494 3.76077 36.8505 4.0674 36.7463H4.06493ZM4.21082 38.4279C4.54218 38.5652 4.91558 38.4113 5.06395 38.056C5.21231 37.6984 5.06642 37.3455 4.75732 37.2176C4.44574 37.0873 4.07482 37.2318 3.90667 37.5776C3.74099 37.921 3.87699 38.2905 4.21082 38.4279Z" fill="#EB2D4B"/>
<path d="M6.67095 37.49C6.85394 37.5516 7.0394 37.6108 7.22486 37.6677C7.49934 37.7529 7.70706 37.8311 7.85543 38.0135C7.98649 38.1698 8.02853 38.3664 7.9766 38.544C7.90241 38.8022 7.69469 38.9656 7.38312 38.9964C7.52407 39.3564 7.67244 39.7164 7.8307 40.0764C7.61556 40.0195 7.40043 39.9627 7.1853 39.9011C7.05918 39.5719 6.93801 39.2427 6.82674 38.9135C6.80201 38.9064 6.77481 38.8969 6.75008 38.8898C6.65859 39.1574 6.56956 39.4227 6.47807 39.6903C6.29755 39.6335 6.11704 39.5766 5.93652 39.5151C6.18133 38.84 6.42861 38.165 6.67342 37.4877L6.67095 37.49ZM7.04187 38.0229C6.97758 38.21 6.91329 38.3995 6.84899 38.5866C6.88608 38.5985 6.92565 38.6103 6.96274 38.6222C7.23722 38.705 7.41279 38.6411 7.46967 38.4564C7.53396 38.2503 7.41279 38.1366 7.12595 38.049C7.09627 38.0395 7.0666 38.03 7.0394 38.0229H7.04187Z" fill="#EB2D4B"/>
<path d="M8.9336 38.1344C9.12154 38.1794 9.30947 38.2221 9.49741 38.2623C9.78178 38.3239 9.9895 38.3879 10.1527 38.5584C10.2961 38.7052 10.3555 38.9042 10.3209 39.0937C10.2417 39.5105 9.83866 39.7308 9.2526 39.6052C9.21551 39.5981 9.18089 39.5887 9.14379 39.5792C9.08445 39.835 9.02263 40.0884 8.96328 40.3442C8.77287 40.3039 8.58247 40.2589 8.39453 40.2139C8.57505 39.52 8.75309 38.826 8.9336 38.1321V38.1344ZM9.36635 38.6366C9.32184 38.8237 9.27733 39.0084 9.23529 39.1955C9.26991 39.2026 9.30205 39.2097 9.33667 39.2168C9.6161 39.276 9.78425 39.2002 9.82135 39.0179C9.86338 38.8189 9.73232 38.7147 9.44053 38.6508C9.4158 38.646 9.39108 38.6413 9.36882 38.6342L9.36635 38.6366Z" fill="#EB2D4B"/>
<path d="M11.2506 38.8331C11.4954 38.6578 11.7971 38.5797 12.0988 38.6152C12.4004 38.6484 12.6725 38.7905 12.8752 39.0202C13.078 39.2499 13.172 39.5413 13.1472 39.8586C13.1274 40.1239 13.0261 40.3584 12.8431 40.5407C12.5859 40.8013 12.2026 40.9268 11.8193 40.8842C11.4904 40.8463 11.1962 40.6923 10.9984 40.4484C10.7956 40.1973 10.7189 39.9036 10.7733 39.5886C10.8277 39.2736 10.9959 39.0155 11.2506 38.8331ZM11.8762 40.4034C12.2273 40.4436 12.5364 40.1926 12.5735 39.8136C12.6106 39.4299 12.3708 39.1315 12.0394 39.0936C11.7081 39.0557 11.4014 39.2949 11.3445 39.6739C11.2877 40.0481 11.5251 40.3631 11.8787 40.4034H11.8762Z" fill="#EB2D4B"/>
<path d="M13.9241 38.8284C14.117 38.8378 14.3074 38.8426 14.5003 38.8473C14.7847 38.8544 15.0072 38.8734 15.2001 39.006C15.3707 39.1197 15.4696 39.2973 15.4721 39.4821C15.4746 39.7521 15.3287 39.9629 15.0419 40.0789C15.2817 40.3868 15.529 40.69 15.7837 40.9931C15.5611 40.9979 15.3411 41.0002 15.1185 41.0002C14.9009 40.7184 14.6907 40.4365 14.4879 40.15C14.4607 40.15 14.4335 40.15 14.4088 40.15C14.4014 40.4318 14.394 40.7113 14.3866 40.9931C14.1986 40.9884 14.0107 40.9813 13.8228 40.9742C13.8574 40.2589 13.892 39.546 13.9266 38.8307L13.9241 38.8284ZM14.4335 39.2381C14.4286 39.4371 14.4236 39.6336 14.4187 39.8326C14.4583 39.8326 14.4978 39.8326 14.5374 39.835C14.8193 39.8397 14.9701 39.7307 14.9701 39.5365C14.9701 39.321 14.8218 39.2452 14.525 39.2405C14.4954 39.2405 14.4657 39.2405 14.4335 39.2405V39.2381Z" fill="#EB2D4B"/>
<path d="M16.2632 38.8307C16.7232 38.8118 17.1831 38.7786 17.6406 38.736C17.6554 38.8828 17.6702 39.0296 17.6851 39.1765C17.3933 39.2049 17.1015 39.2262 16.8097 39.2452C16.8196 39.3731 16.827 39.5033 16.8369 39.6312C17.0916 39.6147 17.3438 39.5957 17.5985 39.572C17.6134 39.7189 17.6282 39.8633 17.6406 40.0102C17.3834 40.0339 17.1238 40.0528 16.8666 40.0694C16.8765 40.2115 16.8864 40.3512 16.8963 40.4933C17.2078 40.4744 17.5194 40.4483 17.8285 40.4199C17.8433 40.5691 17.8607 40.7183 17.8755 40.8699C17.371 40.9173 16.8666 40.9528 16.3621 40.9741C16.3275 40.2589 16.2954 39.546 16.2607 38.8307H16.2632Z" fill="#EB2D4B"/>
<path d="M20.4867 40.105C20.6919 40.0671 20.7908 39.9511 20.7661 39.8374C20.734 39.6929 20.5683 39.6645 20.3062 39.584C20.2468 39.5674 20.19 39.5508 20.1331 39.5319C19.7968 39.43 19.6212 39.2571 19.5767 39.0061C19.5198 38.6745 19.7572 38.3784 20.1924 38.2955C20.3581 38.2624 20.5485 38.2647 20.7735 38.2884C20.8131 38.4519 20.8502 38.6153 20.8898 38.7787C20.6177 38.6911 20.4125 38.6698 20.2913 38.6934C20.138 38.7219 20.0614 38.8048 20.0811 38.909C20.096 38.98 20.1603 39.0369 20.2765 39.07C20.3754 39.0984 20.4743 39.1269 20.5732 39.1529C20.9417 39.2548 21.2162 39.3542 21.2978 39.6882C21.3942 40.079 21.1395 40.4461 20.5881 40.5527C20.4026 40.5882 20.1825 40.5906 19.9278 40.5669C19.8784 40.3821 19.8264 40.195 19.777 40.0103C20.0416 40.1027 20.2592 40.15 20.4867 40.105Z" fill="#EB2D4B"/>
<path d="M22.3811 37.7791C22.3811 37.7791 22.4033 37.772 22.4157 37.7697C22.9943 38.3736 23.6051 38.961 24.2456 39.5294C24.0502 39.5933 23.8549 39.6573 23.6595 39.7165C23.5779 39.6336 23.4938 39.5483 23.4122 39.4655C23.0982 39.5602 22.7817 39.6502 22.4651 39.7331C22.4429 39.8468 22.4206 39.9605 22.3984 40.0741C22.208 40.1239 22.0176 40.1712 21.8271 40.2162C22.0472 39.4039 22.2327 38.5915 22.3811 37.7791ZM23.1278 39.1623C22.9597 38.9776 22.794 38.7904 22.6308 38.6033C22.5987 38.8473 22.5616 39.0912 22.5245 39.3328C22.7273 39.2783 22.9275 39.2215 23.1278 39.1623Z" fill="#EB2D4B"/>
<path d="M23.9536 37.2748C23.9685 37.27 23.9858 37.2629 24.0006 37.2582C24.5941 37.4927 25.2073 37.7058 25.8379 37.8977C25.6747 37.5353 25.509 37.1753 25.3458 36.8129C25.4991 36.749 25.6524 36.6826 25.8058 36.6163C26.1297 37.2913 26.4512 37.9663 26.7751 38.6413C26.7578 38.6485 26.7429 38.6556 26.7256 38.6627C26.0703 38.4898 25.4348 38.2956 24.8166 38.0777C24.965 38.44 25.1134 38.8048 25.2617 39.1671C25.0911 39.2311 24.923 39.2927 24.7523 39.3519C24.4853 38.6579 24.2182 37.9663 23.9536 37.2724V37.2748Z" fill="#EB2D4B"/>
<path d="M26.879 36.4006C26.9754 36.1188 27.1807 35.8867 27.4552 35.7398C27.7296 35.5953 28.0462 35.5527 28.3553 35.6238C28.6668 35.6948 28.924 35.8748 29.0971 36.1472C29.243 36.3746 29.3024 36.6209 29.2578 36.8767C29.201 37.2343 28.9537 37.5588 28.605 37.7435C28.3083 37.8998 27.9646 37.9425 27.653 37.8572C27.3315 37.7696 27.0867 37.573 26.9408 37.2864C26.7924 36.9998 26.7751 36.6967 26.879 36.4006ZM28.3627 37.3172C28.6841 37.149 28.788 36.7677 28.5877 36.4385C28.3849 36.1069 28.0017 36.0027 27.7 36.1614C27.3983 36.3201 27.2895 36.6896 27.4725 37.0282C27.653 37.3646 28.0462 37.4854 28.3652 37.3172H28.3627Z" fill="#EB2D4B"/>
<path d="M30.109 24.5512L30.2054 24.0846L29.7183 23.9875C29.5452 23.952 29.3647 23.9354 29.1842 23.9378C29.5699 23.3433 29.6861 22.6067 29.5254 21.7446L29.4364 21.2757L28.9468 21.3538C28.7465 21.387 28.5511 21.4462 28.3607 21.5243C28.4423 21.3609 28.5116 21.1833 28.5561 20.9867C28.7292 20.243 28.5388 19.4662 27.9947 18.6751L27.7203 18.2772L27.3023 18.5354C26.6916 18.912 26.2341 19.5728 26.0783 20.3046C25.9621 20.8493 25.9571 21.683 26.5902 22.5736L26.8449 22.9312C26.6223 23.3883 26.469 24.0112 26.6297 24.7952L26.7188 25.2333C26.5135 25.5365 26.3404 25.9083 26.2489 26.3796L26.1624 26.8225C25.7593 27.0783 25.3439 27.4786 25.0447 28.1062L24.8518 28.5089C24.6441 28.5681 24.4265 28.6462 24.2039 28.7599L23.7811 28.9754L23.786 28.9849C23.7662 28.992 23.7489 28.9991 23.7291 29.0086L15.3389 33.4328C15.193 33.511 15.0149 33.511 14.8666 33.4328L6.4763 29.0086C6.45899 28.9991 6.43921 28.992 6.41943 28.9849L6.42437 28.9754L6.00152 28.7599C5.77897 28.6462 5.56136 28.5681 5.35364 28.5089L5.16076 28.1062C4.86155 27.4786 4.44612 27.0783 4.04305 26.8225L3.9565 26.3796C3.86501 25.9083 3.69191 25.5365 3.48667 25.2333L3.57569 24.7952C3.73395 24.0112 3.58311 23.3883 3.36056 22.9312L3.61525 22.5736C4.2483 21.683 4.24335 20.847 4.12713 20.3046C3.97134 19.5751 3.51387 18.9143 2.90308 18.5354L2.48518 18.2772L2.2107 18.6751C1.66668 19.4662 1.47627 20.243 1.64937 20.9867C1.69388 21.1833 1.76312 21.3609 1.84472 21.5243C1.65431 21.4462 1.45649 21.387 1.25866 21.3538L0.769045 21.2757L0.680024 21.7446C0.519291 22.6067 0.635513 23.3433 1.02127 23.9378C0.840757 23.9378 0.660241 23.9544 0.487144 23.9875L0 24.0846L0.0964398 24.5512C0.284374 25.4536 0.702279 26.1191 1.34027 26.536C1.28834 26.5573 1.23393 26.5762 1.18448 26.5999L0.739372 26.8083L0.952034 27.237C1.37736 28.092 1.97331 28.651 2.72504 28.8949C2.74235 28.8997 2.76213 28.9044 2.77944 28.9115C2.39863 29.1673 2.08458 29.5036 1.88676 29.8826L1.6642 30.3089L2.10684 30.5268C2.7102 30.8228 3.28884 30.9602 3.83534 30.9389C4.08756 30.9294 4.3299 30.8844 4.56729 30.8086C5.13356 30.6239 5.54405 30.2757 5.81359 29.9726C5.83832 29.9915 5.86304 30.0105 5.89272 30.0247L14.8641 34.7544C15.01 34.8326 15.188 34.8326 15.3364 34.7544L24.3078 30.0247C24.3374 30.0105 24.3622 29.9915 24.3869 29.9726C24.6564 30.2757 25.0644 30.6239 25.6332 30.8086C25.8706 30.8868 26.1154 30.9294 26.3652 30.9389C26.9116 30.9602 27.4903 30.8228 28.0936 30.5268L28.5363 30.3089L28.3137 29.8826C28.1159 29.5036 27.8019 29.1673 27.421 28.9115C27.4384 28.9068 27.4581 28.902 27.4754 28.8949C28.2297 28.651 28.8256 28.0944 29.2485 27.237L29.4611 26.8083L29.016 26.5999C28.9666 26.5762 28.9121 26.5573 28.8602 26.536C29.4957 26.1215 29.9161 25.456 30.104 24.5512H30.109ZM2.77203 19.7054C2.95501 19.9304 3.08855 20.2051 3.15037 20.4941C3.20724 20.757 3.22208 21.1241 3.06134 21.5409C2.88825 21.3515 2.7102 21.0909 2.63849 20.7688C2.56431 20.4372 2.60882 20.082 2.7745 19.7054H2.77203ZM2.29477 23.0615C2.4555 23.2817 2.62118 23.6133 2.64344 24.0586C2.40605 23.9496 2.13651 23.7767 1.93621 23.5091C1.73097 23.232 1.62711 22.8886 1.62464 22.4812C1.88428 22.6186 2.12168 22.8223 2.29724 23.0615H2.29477ZM2.10437 25.2167C2.33681 25.366 2.61871 25.617 2.80912 26.022C2.55442 26.0007 2.23048 25.9391 1.94116 25.7567C1.64442 25.572 1.41692 25.2878 1.25866 24.9088C1.55293 24.9467 1.85214 25.0509 2.10684 25.2144L2.10437 25.2167ZM2.16866 27.3152C2.46292 27.282 2.77944 27.3152 3.06876 27.4146C3.33335 27.5046 3.66966 27.6823 3.9565 28.0304C3.69933 28.0731 3.37539 28.0825 3.0564 27.9807C2.71762 27.8718 2.42089 27.6491 2.16866 27.3152ZM4.25324 29.892C3.91694 30.0033 3.5386 29.9986 3.12811 29.8802C3.34077 29.6812 3.61278 29.5249 3.90457 29.4349C4.17164 29.352 4.55245 29.2976 5.00003 29.4065C4.82446 29.5889 4.57718 29.7855 4.25324 29.892ZM28.2816 23.5067C28.0813 23.7767 27.8117 23.9473 27.5744 24.0562C27.5966 23.6133 27.7623 23.2817 27.923 23.0591C28.0986 22.8175 28.3335 22.6162 28.5956 22.4788C28.5932 22.8862 28.4893 23.2296 28.2841 23.5067H28.2816ZM27.0674 20.4917C27.1292 20.2051 27.2628 19.928 27.4458 19.703C27.6114 20.0772 27.656 20.4325 27.5818 20.7664C27.5076 21.0886 27.332 21.3491 27.1589 21.5386C26.9982 21.1217 27.013 20.7546 27.0699 20.4917H27.0674ZM25.9646 29.892C25.6406 29.7855 25.3933 29.5912 25.2178 29.4065C25.6678 29.2976 26.0486 29.352 26.3132 29.4349C26.605 29.5249 26.877 29.6836 27.0897 29.8802C26.6792 29.9986 26.3009 30.001 25.9646 29.892ZM27.1614 27.9807C26.8424 28.0849 26.516 28.0754 26.2613 28.0304C26.5481 27.6823 26.8869 27.5046 27.149 27.4146C27.4384 27.3152 27.7524 27.2844 28.0491 27.3152C27.7969 27.6468 27.5002 27.8694 27.1614 27.9807ZM28.2766 25.7591C27.9873 25.9391 27.6634 26.0007 27.4087 26.0244C27.5991 25.6194 27.881 25.3683 28.1134 25.2191C28.3681 25.0557 28.6649 24.9515 28.9616 24.9136C28.8033 25.2925 28.5758 25.5744 28.2791 25.7615L28.2766 25.7591Z" fill="#EB2D4B"/>
<path d="M28.9299 13.4125H24.3255V12.3514C24.3255 12.1359 24.2068 11.9369 24.0139 11.828C23.821 11.719 23.5812 11.7167 23.3858 11.8209L20.2725 13.474L18.7839 3.48397C18.7246 2.93923 18.5787 2.46081 18.3487 2.06054C17.6316 0.810005 16.1578 0 14.595 0H8.633C7.99996 0 7.4238 0.243949 6.99847 0.637109C6.75119 0.265265 6.27394 0 5.81399 0C4.87432 0 4.11022 0.741321 4.11022 1.65317V2.89897C4.11022 3.23292 4.3946 3.50529 4.74326 3.50529C5.09193 3.50529 5.37631 3.23292 5.37631 2.89897V1.65317C5.37631 1.41159 5.57166 1.21264 5.81152 1.21264C6.05138 1.21264 6.24674 1.57975 6.24674 1.82133V2.13633C6.24674 2.15765 6.25168 2.17659 6.25415 2.19554C6.25415 2.2358 6.24674 2.27607 6.24674 2.31633V3.31581C6.24674 4.38161 6.99105 5.28398 7.99996 5.55161L8.01727 7.87742C8.01727 8.00531 8.06178 8.13084 8.14338 8.23505L9.87188 10.4614C10.0351 10.6722 10.3195 10.7574 10.5791 10.6745C10.8388 10.5916 11.0143 10.3595 11.0143 10.099V6.31188C11.0143 5.65583 11.5534 5.12056 12.2186 5.12056C12.3398 5.12056 12.4584 5.13714 12.5722 5.17267C12.8368 5.25319 13.0569 5.43556 13.1929 5.68898C13.3487 5.97556 13.3808 6.31662 13.2819 6.62925L10.2008 13.6019L6.82785 11.809C6.63249 11.7048 6.39263 11.7072 6.19975 11.8161C6.00687 11.9251 5.88818 12.124 5.88818 12.3396V13.4006H1.28874C0.984586 13.4006 0.737305 13.6375 0.737305 13.9288C0.737305 14.2201 0.984586 14.4569 1.28874 14.4569H5.89312V15.1509H2.5845C2.28034 15.1509 2.03306 15.3877 2.03306 15.679C2.03306 15.9704 2.28034 16.2072 2.5845 16.2072H5.89312V16.9012H3.90745C3.6033 16.9012 3.35602 17.138 3.35602 17.4293C3.35602 17.7206 3.6033 17.9575 3.90745 17.9575H5.89312V26.9291C5.89312 27.1494 6.01676 27.3531 6.21953 27.4597L14.8027 32.0213C14.8991 32.071 15.003 32.097 15.1093 32.097C15.2156 32.097 15.322 32.071 15.4159 32.0213L23.9991 27.4597C24.1994 27.3531 24.3255 27.1494 24.3255 26.9291V17.9575H26.3112C26.6153 17.9575 26.8626 17.7206 26.8626 17.4293C26.8626 17.138 26.6153 16.9012 26.3112 16.9012H24.3255V16.2072H27.6341C27.9383 16.2072 28.1855 15.9704 28.1855 15.679C28.1855 15.3877 27.9383 15.1509 27.6341 15.1509H24.3255V14.4569H28.9299C29.234 14.4569 29.4813 14.2201 29.4813 13.9288C29.4813 13.6375 29.234 13.4006 28.9299 13.4006V13.4125Z" fill="#EB2D4B"/>
<path d="M21.2171 19.5181C21.0761 19.4352 20.9006 19.4258 20.7497 19.4921L16.2566 21.4721C16.1973 21.4982 16.1429 21.536 16.0984 21.5834L15.1092 22.635L14.1201 21.5834C14.0756 21.536 14.0237 21.4982 13.9619 21.4721L9.46876 19.4921C9.31791 19.4258 9.14234 19.4352 9.00139 19.5181C8.86044 19.601 8.77637 19.7455 8.77637 19.8995V26.929C8.77637 27.09 8.86786 27.2369 9.01376 27.3198L14.862 30.5432C14.862 30.5432 14.862 30.5432 14.8644 30.5432C14.8644 30.5432 14.8644 30.5432 14.8669 30.5456C14.9411 30.5858 15.0252 30.6048 15.1068 30.6048C15.1884 30.6048 15.2725 30.5858 15.3466 30.5456C15.3466 30.5456 15.3466 30.5456 15.3491 30.5432C15.3516 30.5408 15.3491 30.5432 15.3516 30.5432L21.1998 27.3198C21.3482 27.2392 21.4397 27.09 21.4397 26.929V19.8995C21.4397 19.7455 21.3556 19.601 21.2146 19.5181H21.2171ZM9.74571 20.6147L13.4574 22.2513L14.6246 23.4924V29.3614L9.74571 26.6732V20.6171V20.6147ZM20.4728 26.6708L15.5939 29.359V23.49L16.7611 22.2489L17.268 22.0263V24.3592C17.268 24.5108 17.362 24.6363 17.5128 24.6884C17.6587 24.7405 17.8269 24.6979 17.9283 24.5866L18.4055 24.0632L18.9792 24.1934C19.0929 24.2195 19.2092 24.1958 19.3007 24.1295C19.3922 24.0632 19.4441 23.9613 19.4441 23.8524V21.0647L20.4703 20.6124V26.6684L20.4728 26.6708Z" fill="white"/>
<path d="M15.1092 13.0786C13.0815 13.0786 11.4321 14.6584 11.4321 16.6005C11.4321 18.5426 13.0815 20.1223 15.1092 20.1223C17.1369 20.1223 18.7863 18.5426 18.7863 16.6005C18.7863 14.6584 17.1369 13.0786 15.1092 13.0786ZM16.4569 18.9168C16.2591 19.0234 16.0489 19.1063 15.8238 19.1655C16.0439 18.571 16.1453 17.6852 15.5914 16.6123C15.8189 16.2902 16.0687 16.0605 16.3159 15.8971C16.9391 17.2755 16.5607 18.6089 16.4569 18.9168ZM12.3446 16.4347C12.3545 16.2855 12.3718 16.1386 12.4064 15.9965C12.8441 16.4631 13.6008 16.9723 14.8075 17.0197C14.9831 17.3655 15.0672 17.6829 15.0944 17.9647C13.4969 17.7207 12.5152 16.636 12.3446 16.4323V16.4347ZM16.4767 14.2936C16.6869 14.4073 16.8847 14.5399 17.0553 14.701C16.4025 14.8099 15.5271 15.1581 14.8372 16.1576C14.4539 16.1386 14.13 16.0676 13.8654 15.9586C14.8842 14.637 16.4668 14.3363 16.4841 14.3339L16.4767 14.296V14.2936ZM15.1092 16.6431V16.6336L15.1166 16.6384L15.1092 16.6431ZM15.0152 13.9455C14.4094 14.2439 13.6997 14.7223 13.1285 15.4755C12.9851 15.3334 12.8812 15.2007 12.8169 15.0965C13.3016 14.4215 14.1052 13.9739 15.0152 13.9455ZM12.7032 17.915C13.267 18.3034 14.0385 18.6823 15.0004 18.8197C14.9411 18.9973 14.8693 19.1371 14.8075 19.2365C13.9025 19.1418 13.1359 18.6373 12.7032 17.915ZM17.5573 17.8392C17.5919 17.1902 17.5128 16.385 17.1369 15.5584C17.3446 15.5157 17.5227 15.5086 17.6414 15.511C17.7996 15.8449 17.8911 16.2121 17.8911 16.6005C17.8911 17.0505 17.7625 17.4673 17.5573 17.8392Z" fill="white"/>
<path d="M8.90274 2.88489C8.5244 2.88489 8.21777 3.18568 8.21777 3.55516C8.21777 3.92463 8.5244 4.22542 8.90274 4.22542C9.28108 4.22542 9.58771 3.92463 9.58771 3.55516C9.58771 3.18568 9.28108 2.88489 8.90274 2.88489Z" fill="white"/>
<path d="M44.4347 10.6318C44.6927 10.6318 44.8647 10.7966 44.8647 11.0494V11.8078C44.8647 12.0578 44.6927 12.2254 44.4347 12.2254H40.781V13.4922H43.9721C44.233 13.4922 44.4021 13.657 44.4021 13.9098V14.6739C44.4021 14.921 44.236 15.0857 43.9721 15.0857H40.781V16.5287H44.4347C44.6927 16.5287 44.8647 16.6935 44.8647 16.9463V17.7104C44.8647 17.9575 44.6927 18.1222 44.4347 18.1222H39.3871C39.1261 18.1222 38.9512 17.9575 38.9512 17.7104V11.0522C38.9512 10.8023 39.1232 10.6347 39.3871 10.6347H44.4347V10.6318Z" fill="#112264"/>
<path d="M47.5335 10.6318C47.7915 10.6318 47.9635 10.7966 47.9635 11.0494V14.742C47.9635 15.8697 48.5893 16.6537 49.6421 16.6537C50.6949 16.6537 51.3148 15.8697 51.3148 14.742V11.0494C51.3148 10.7994 51.4868 10.6318 51.7448 10.6318H52.7057C52.9637 10.6318 53.1357 10.7966 53.1357 11.0437V14.8471C53.1357 16.8894 51.7003 18.2415 49.6421 18.2415C47.5839 18.2415 46.1396 16.8781 46.1396 14.8471V11.0494C46.1396 10.7994 46.3117 10.6318 46.5756 10.6318H47.5365H47.5335Z" fill="#112264"/>
<path d="M54.99 15.9861C55.079 15.8895 55.1917 15.8413 55.3014 15.8413C55.4022 15.8413 55.5031 15.8782 55.598 15.9606C56.2296 16.4832 56.7427 16.6536 57.4159 16.6536C58.1811 16.6536 58.6763 16.3554 58.6763 15.8697C58.6763 15.4152 58.1514 15.2078 56.9533 15.009C55.3251 14.742 54.4769 13.941 54.4769 12.7707C54.4769 11.43 55.8441 10.5096 57.407 10.5096C58.3501 10.5096 59.1864 10.734 60.2452 11.5578C60.3579 11.643 60.4113 11.7566 60.4113 11.8731C60.4113 11.964 60.3727 12.0606 60.2986 12.1458L59.7914 12.7281C59.6965 12.836 59.5809 12.8843 59.4622 12.8843C59.3614 12.8843 59.2665 12.8531 59.1716 12.7877C58.4687 12.2793 57.9675 12.1032 57.3922 12.1032C56.722 12.1032 56.3275 12.3588 56.3275 12.7593C56.3275 13.0803 56.7071 13.3104 57.5553 13.4552C59.4741 13.7762 60.5239 14.5176 60.5239 15.8271C60.5239 17.253 59.2309 18.2415 57.3952 18.2415C56.2563 18.2415 55.3488 17.9631 54.471 17.1678C54.3761 17.0826 54.3257 16.9746 54.3257 16.8638C54.3257 16.7616 54.3702 16.6565 54.4532 16.5656L54.99 15.989V15.9861Z" fill="#112264"/>
<path d="M67.2824 10.6318C67.5404 10.6318 67.7124 10.7966 67.7124 11.0494V11.8078C67.7124 12.0578 67.5404 12.2254 67.2824 12.2254H63.6287V13.4922H66.8197C67.0807 13.4922 67.2497 13.657 67.2497 13.9098V14.6739C67.2497 14.921 67.0837 15.0857 66.8197 15.0857H63.6287V16.5287H67.2824C67.5404 16.5287 67.7124 16.6935 67.7124 16.9463V17.7104C67.7124 17.9575 67.5404 18.1222 67.2824 18.1222H62.2348C61.9738 18.1222 61.7988 17.9575 61.7988 17.7104V11.0522C61.7988 10.8023 61.9708 10.6347 62.2348 10.6347H67.2824V10.6318Z" fill="#112264"/>
<path d="M72.443 10.632C74.0712 10.632 74.9698 11.7426 74.9698 12.7368C74.9698 13.2538 74.7295 13.748 74.2165 14.0292V14.0889C74.952 14.4667 75.3316 15.1455 75.3316 15.8415C75.3316 16.9635 74.4626 18.1167 72.4638 18.1167H69.4892C69.2282 18.1167 69.0532 17.9519 69.0532 17.7048V11.0467C69.0532 10.7967 69.2252 10.6292 69.4892 10.6292H72.44L72.443 10.632ZM70.8741 12.2227V13.4185H72.4371C72.9116 13.4185 73.1518 13.1089 73.1518 12.805C73.1518 12.501 72.9175 12.2227 72.443 12.2227H70.8741ZM70.8741 16.5232H72.526C73.2348 16.5232 73.5136 16.1482 73.5077 15.7704C73.5077 15.387 73.223 15.0007 72.5438 15.0007H70.8771V16.5232H70.8741Z" fill="#112264"/>
<path d="M78.5105 17.7075C78.5105 17.9546 78.3384 18.1194 78.0745 18.1194H77.1136C76.8556 18.1194 76.6836 17.9546 76.6836 17.7075V11.0437C76.6836 10.7966 76.8556 10.6318 77.1136 10.6318H78.0745C78.3355 10.6318 78.5105 10.7966 78.5105 11.0437V17.7075Z" fill="#112264"/>
<path d="M83.7625 18.2413C81.5086 18.2413 79.7974 16.5739 79.7974 14.3981C79.7974 12.2223 81.4997 10.5123 83.7625 10.5123C86.0253 10.5123 87.7128 12.1627 87.7128 14.3981C87.7128 16.6336 86.0016 18.2413 83.7625 18.2413ZM85.8711 14.3981C85.8711 13.0631 84.9843 12.1002 83.7625 12.1002C82.5406 12.1002 81.6361 13.0631 81.6361 14.3981C81.6361 15.7332 82.5465 16.6535 83.7625 16.6535C84.9784 16.6535 85.8711 15.6763 85.8711 14.3981Z" fill="#112264"/>
<path d="M45.6595 28.0613C45.704 28.1522 45.7218 28.2317 45.7218 28.3084C45.7218 28.5073 45.5646 28.6294 45.274 28.6294H44.2241C44.0284 28.6294 43.8445 28.5129 43.7734 28.3397L43.1535 26.9251H40.2294L39.6155 28.3397C39.5384 28.5101 39.3575 28.6294 39.1647 28.6294H38.1089C37.8183 28.6294 37.6641 28.5073 37.6641 28.3027C37.6641 28.2346 37.6878 28.1522 37.7263 28.0613L40.8166 21.4316C40.8996 21.2611 41.0835 21.1418 41.2792 21.1418H42.0978C42.2935 21.1418 42.4774 21.2583 42.5545 21.4316L45.6566 28.0613H45.6595ZM42.0117 24.0477C41.8783 23.7011 41.7656 23.3091 41.7092 23.133H41.6648C41.6025 23.3148 41.4809 23.6898 41.3534 24.0306L40.8225 25.4793H42.5634L42.0117 24.0477Z" fill="#112264"/>
<path d="M49.5237 26.2009H48.5153V28.2148C48.5153 28.462 48.3433 28.6267 48.0794 28.6267H47.1185C46.8605 28.6267 46.6885 28.462 46.6885 28.2148V21.5567C46.6885 21.3067 46.8605 21.1392 47.1185 21.1392H49.8588C51.7123 21.1392 52.9431 22.1447 52.9431 23.6814C52.9431 24.6387 52.3559 25.434 51.5107 25.8885L53.3909 28.07C53.4977 28.1921 53.5481 28.3 53.5481 28.3909C53.5481 28.5358 53.4028 28.6267 53.1181 28.6267H51.9229C51.7272 28.6267 51.5166 28.5301 51.392 28.3853L49.5237 26.2009ZM48.5153 24.6102H50.0338C50.6803 24.6102 51.0984 24.2637 51.0984 23.6871C51.0984 23.1105 50.6803 22.7355 50.0338 22.7355H48.5153V24.6102Z" fill="#112264"/>
<path d="M57.4362 26.2009H56.4279V28.2148C56.4279 28.462 56.2559 28.6267 55.9919 28.6267H55.034C54.776 28.6267 54.604 28.462 54.604 28.2148V21.5567C54.604 21.3067 54.776 21.1392 55.034 21.1392H57.7743C59.6279 21.1392 60.8586 22.1447 60.8586 23.6814C60.8586 24.6387 60.2714 25.434 59.4262 25.8885L61.3064 28.07C61.4132 28.1921 61.4636 28.3 61.4636 28.3909C61.4636 28.5358 61.3183 28.6267 61.0336 28.6267H59.8384C59.6427 28.6267 59.4321 28.5301 59.3076 28.3853L57.4392 26.2009H57.4362ZM56.4279 24.6102H57.9463C58.5928 24.6102 59.011 24.2637 59.011 23.6871C59.011 23.1105 58.5928 22.7355 57.9463 22.7355H56.4279V24.6102Z" fill="#112264"/>
<path d="M65.8079 28.7486C63.554 28.7486 61.8428 27.0813 61.8428 24.9055C61.8428 22.7296 63.5451 21.0197 65.8079 21.0197C68.0707 21.0197 69.7582 22.67 69.7582 24.9055C69.7582 27.1409 68.047 28.7486 65.8079 28.7486ZM67.9165 24.9055C67.9165 23.5704 67.0297 22.6075 65.8079 22.6075C64.586 22.6075 63.6815 23.5704 63.6815 24.9055C63.6815 26.2405 64.592 27.1608 65.8079 27.1608C67.0238 27.1608 67.9165 26.1837 67.9165 24.9055Z" fill="#112264"/>
<path d="M77.3214 21.1418C77.5824 21.1418 77.7573 21.3066 77.7573 21.5594V28.2175C77.7573 28.4646 77.5853 28.6294 77.3214 28.6294H76.4465C76.2508 28.6294 76.0491 28.5271 75.9334 28.3794L72.864 24.3033H72.8076C72.8313 24.5561 72.864 25.0191 72.864 25.6071V28.2204C72.864 28.4703 72.692 28.6322 72.428 28.6322H71.4671C71.2091 28.6322 71.0371 28.4732 71.0371 28.2204V21.5622C71.0371 21.3123 71.2091 21.1447 71.4671 21.1447H72.3212C72.517 21.1447 72.7216 21.2469 72.8343 21.3946L75.9423 25.4708H75.9987C75.975 25.2293 75.9305 24.755 75.9305 24.2749V21.5594C75.9305 21.3094 76.1025 21.1418 76.3605 21.1418H77.3184H77.3214Z" fill="#112264"/>
<path d="M81.2448 28.2148C81.2448 28.462 81.0728 28.6267 80.8089 28.6267H79.848C79.59 28.6267 79.418 28.462 79.418 28.2148V21.551C79.418 21.3039 79.59 21.1392 79.848 21.1392H80.8089C81.0699 21.1392 81.2448 21.3039 81.2448 21.551V28.2148Z" fill="#112264"/>
<path d="M89.0001 28.2148C89.0001 28.462 88.834 28.6267 88.5701 28.6267H82.9027C82.6447 28.6267 82.4727 28.462 82.4727 28.2148V27.6013C82.4727 27.4138 82.5557 27.1951 82.6803 27.0502L86.3725 22.7327H82.9916C82.7336 22.7327 82.5616 22.5679 82.5616 22.3151V21.5567C82.5616 21.3067 82.7336 21.1392 82.9916 21.1392H88.4752C88.7362 21.1392 88.9111 21.3039 88.9111 21.5567L88.9052 22.1447C88.9052 22.3322 88.8281 22.5509 88.6976 22.6958L84.949 27.0332H88.5701C88.8311 27.0332 89.0001 27.1979 89.0001 27.4507V28.2148Z" fill="#112264"/>
<path d="M65.5712 19.8304C65.6707 19.6858 65.8349 19.5995 66.0104 19.5995C66.4397 19.5995 66.6928 20.081 66.4495 20.4347L66.4012 20.5048C66.3018 20.6494 66.1376 20.7357 65.9621 20.7357C65.5328 20.7357 65.2796 20.2541 65.523 19.9005L65.5712 19.8304Z" fill="#112264"/>
<path d="M47.7888 32.9183C47.8333 32.87 47.8926 32.8444 47.9489 32.8444C47.9993 32.8444 48.0527 32.8643 48.1002 32.9041C48.4234 33.1711 48.6874 33.2591 49.0314 33.2591C49.4229 33.2591 49.6779 33.1057 49.6779 32.8558C49.6779 32.6228 49.408 32.5149 48.7941 32.4155C47.9608 32.2791 47.5248 31.8673 47.5248 31.2679C47.5248 30.5805 48.2247 30.109 49.0255 30.109C49.5089 30.109 49.9359 30.2226 50.4816 30.6459C50.538 30.6885 50.5676 30.7481 50.5676 30.8078C50.5676 30.8532 50.5469 30.9043 50.5113 30.947L50.2503 31.2452C50.2028 31.2992 50.1406 31.3247 50.0812 31.3247C50.0308 31.3247 49.9804 31.3077 49.933 31.2765C49.5741 31.0151 49.3161 30.9271 49.0225 30.9271C48.6785 30.9271 48.4768 31.0577 48.4768 31.2651C48.4768 31.4298 48.6725 31.5463 49.1055 31.6202C50.0872 31.7849 50.6269 32.1655 50.6269 32.8359C50.6269 33.5659 49.9626 34.0715 49.0225 34.0715C48.4383 34.0715 47.9726 33.9295 47.5248 33.5204C47.4774 33.4778 47.4507 33.421 47.4507 33.3642C47.4507 33.3131 47.4744 33.2563 47.5159 33.2108L47.7917 32.9154L47.7888 32.9183Z" fill="#EB2D4B"/>
<path d="M54.5833 34.0742C53.3555 34.0742 52.5459 33.2504 52.5459 32.0915C52.5459 30.9326 53.3555 30.1117 54.5833 30.1117C55.2298 30.1117 55.6747 30.3134 56.0721 30.711C56.1166 30.7536 56.1373 30.8105 56.1373 30.8616C56.1373 30.9184 56.1136 30.9752 56.0662 31.0235L55.7874 31.3019C55.7429 31.3445 55.6925 31.3672 55.6421 31.3672C55.5887 31.3672 55.5323 31.3445 55.4849 31.299C55.218 31.0405 54.9511 30.9269 54.5804 30.9269C53.9754 30.9269 53.4771 31.3871 53.4771 32.0915C53.4771 32.796 53.9754 33.2618 54.5804 33.2618C54.9362 33.2618 55.2358 33.1084 55.4819 32.8897C55.5323 32.8443 55.5887 32.8215 55.6421 32.8215C55.6954 32.8215 55.7459 32.8443 55.7903 32.884L56.0632 33.1453C56.1136 33.1936 56.1373 33.2504 56.1373 33.3073C56.1373 33.3584 56.1166 33.4124 56.0751 33.455C55.6777 33.864 55.2031 34.0742 54.5833 34.0742Z" fill="#EB2D4B"/>
<path d="M61.6799 33.7988C61.6799 33.9238 61.591 34.009 61.4605 34.009H60.9682C60.8377 34.009 60.7487 33.9238 60.7487 33.7988V32.4496H59.1324V33.7988C59.1324 33.9238 59.0435 34.009 58.91 34.009H58.4177C58.2872 34.009 58.1982 33.9238 58.1982 33.7988V30.3874C58.1982 30.2595 58.2872 30.1743 58.4177 30.1743H58.91C59.0435 30.1743 59.1324 30.2595 59.1324 30.3874V31.6315H60.7487V30.3874C60.7487 30.2595 60.8377 30.1743 60.9682 30.1743H61.4605C61.591 30.1743 61.6799 30.2595 61.6799 30.3874V33.7988Z" fill="#EB2D4B"/>
<path d="M65.8376 34.0744C64.684 34.0744 63.8062 33.2194 63.8062 32.1059C63.8062 30.9925 64.6781 30.1147 65.8376 30.1147C66.9972 30.1147 67.8602 30.9612 67.8602 32.1059C67.8602 33.2507 66.9824 34.0744 65.8376 34.0744ZM66.9171 32.1059C66.9171 31.4214 66.4634 30.93 65.8376 30.93C65.2119 30.93 64.7492 31.4242 64.7492 32.1059C64.7492 32.7877 65.2148 33.262 65.8376 33.262C66.4604 33.262 66.9171 32.7621 66.9171 32.1059Z" fill="#EB2D4B"/>
<path d="M71.8196 34.0744C70.6659 34.0744 69.7881 33.2194 69.7881 32.1059C69.7881 30.9925 70.66 30.1147 71.8196 30.1147C72.9792 30.1147 73.8422 30.9612 73.8422 32.1059C73.8422 33.2507 72.9643 34.0744 71.8196 34.0744ZM72.8991 32.1059C72.8991 31.4214 72.4453 30.93 71.8196 30.93C71.1938 30.93 70.7312 31.4242 70.7312 32.1059C70.7312 32.7877 71.1968 33.262 71.8196 33.262C72.4424 33.262 72.8991 32.7621 72.8991 32.1059Z" fill="#EB2D4B"/>
<path d="M76.9029 33.1939H78.7179C78.8484 33.1939 78.9374 33.2791 78.9374 33.407V33.7989C78.9374 33.9239 78.8484 34.0091 78.7179 34.0091H76.1882C76.0577 34.0091 75.9688 33.9239 75.9688 33.7989V30.3818C75.9688 30.2568 76.0577 30.1716 76.1882 30.1716H76.6805C76.814 30.1716 76.9029 30.2568 76.9029 30.3818V33.1939Z" fill="#EB2D4B"/>
<path d="M57.9792 9.12361C57.9792 9.22302 57.908 9.29119 57.8013 9.29119H57.4128C57.309 9.29119 57.2378 9.22302 57.2378 9.12361V6.41661C57.2378 6.3172 57.309 6.24902 57.4128 6.24902H57.8013C57.908 6.24902 57.9792 6.3172 57.9792 6.41661V9.12645V9.12361Z" fill="#EB2D4B"/>
<path d="M63.3054 6.24915C63.4092 6.24915 63.4804 6.31732 63.4804 6.41958V6.72919C63.4804 6.83145 63.4092 6.89678 63.3054 6.89678H61.8196V7.41091H63.1156C63.2223 7.41091 63.2906 7.47908 63.2906 7.58134V7.89095C63.2906 7.99037 63.2223 8.05854 63.1156 8.05854H61.8196V8.64368H63.3054C63.4092 8.64368 63.4804 8.71186 63.4804 8.81411V9.12373C63.4804 9.22314 63.4092 9.29132 63.3054 9.29132H61.2531C61.1464 9.29132 61.0752 9.22314 61.0752 9.12373V6.41958C61.0752 6.31732 61.1464 6.24915 61.2531 6.24915H63.3054Z" fill="#EB2D4B"/>
<path d="M67.7334 6.24915C68.4896 6.24915 68.9819 6.65818 68.9879 7.28309C68.9938 7.90231 68.4867 8.30566 67.7334 8.30566H67.1877V9.12373C67.1877 9.22314 67.1165 9.29132 67.0098 9.29132H66.6213C66.5175 9.29132 66.4463 9.22314 66.4463 9.12373V6.41673C66.4463 6.31732 66.5175 6.24915 66.6213 6.24915H67.7334ZM68.2376 7.28309C68.2376 7.04732 68.0715 6.89678 67.8046 6.89678H67.1877V7.65803H67.8046C68.0715 7.65803 68.2376 7.51601 68.2376 7.28309Z" fill="#EB2D4B"/>
</svg>
