<svg width="354" height="250" viewBox="0 0 354 250" fill="none" xmlns="http://www.w3.org/2000/svg">
<path d="M18.4994 177.976C18.4994 177.976 18.5781 178.015 18.6175 178.035C18.6175 180.215 18.6666 182.405 18.7945 184.604C20.5453 183.308 22.2468 181.963 23.8894 180.578C23.9287 180.598 23.9779 180.617 24.0271 180.637C23.2993 183.662 22.6206 186.706 21.9911 189.76C21.3813 189.505 20.7715 189.24 20.1617 188.965C20.4862 187.629 20.8207 186.294 21.1551 184.968C19.8666 185.989 18.5486 186.981 17.2011 187.963C17.1618 187.943 17.1224 187.924 17.0733 187.904C16.9552 186.195 16.8765 184.506 16.8372 182.807C15.9815 183.917 15.1258 185.017 14.2603 186.107C13.6996 185.812 13.1488 185.518 12.598 185.213C14.6143 182.827 16.5815 180.411 18.5093 177.956L18.4994 177.976Z" fill="#EB2D4B"/>
<path d="M27.5777 182.434C29.1022 183.023 30.6267 183.573 32.1709 184.084C31.9841 184.663 31.7874 185.243 31.6005 185.832C30.6169 185.508 29.6432 185.174 28.6694 184.811C28.4826 185.311 28.2957 185.822 28.1186 186.323C28.9645 186.637 29.8202 186.932 30.6759 187.217C30.4792 187.796 30.2923 188.366 30.0956 188.945C29.2202 188.65 28.3547 188.346 27.4892 188.032C27.2826 188.582 27.0859 189.132 26.8793 189.682C27.9219 190.064 28.9743 190.428 30.0268 190.772C29.8301 191.361 29.6333 191.96 29.4465 192.549C27.735 191.989 26.0335 191.38 24.3417 190.722C25.4237 187.963 26.5056 185.194 27.5777 182.434Z" fill="#EB2D4B"/>
<path d="M34.7475 184.584C34.8065 184.604 34.8556 184.614 34.9147 184.634C35.9966 186.755 37.1769 188.856 38.4555 190.938C38.8293 189.347 39.203 187.756 39.5768 186.166C40.1374 186.293 40.698 186.421 41.2685 186.549C40.6194 189.554 39.9702 192.568 39.3211 195.573C39.262 195.564 39.203 195.544 39.144 195.534C37.7473 193.462 36.449 191.361 35.2589 189.239C34.8261 190.801 34.4032 192.352 33.9704 193.914C33.3606 193.747 32.741 193.57 32.1312 193.393C33.0065 190.457 33.8721 187.521 34.7475 184.584Z" fill="#EB2D4B"/>
<path d="M44.8291 194.621C45.5471 194.739 46.029 194.425 46.1077 193.944C46.1963 193.335 45.6946 193.011 44.9471 192.353C44.7799 192.215 44.6127 192.068 44.4553 191.931C43.5013 191.096 43.1472 190.192 43.3439 189.161C43.6095 187.786 44.7898 186.942 46.3044 187.187C46.8848 187.276 47.5044 187.531 48.2027 187.914C48.1142 188.601 48.0159 189.289 47.9273 189.986C47.17 189.289 46.511 188.935 46.0881 188.867C45.5569 188.788 45.1832 189.004 45.1143 189.436C45.0652 189.731 45.2028 190.035 45.5373 190.32C45.8225 190.556 46.1077 190.801 46.393 191.037C47.4552 191.921 48.2224 192.667 48.0454 194.081C47.8487 195.741 46.511 196.821 44.5635 196.517C43.9045 196.409 43.1767 196.134 42.38 195.711C42.4685 194.926 42.557 194.13 42.6456 193.345C43.3832 194.042 44.0422 194.513 44.8389 194.641L44.8291 194.621Z" fill="#EB2D4B"/>
<path d="M57.2319 195.79C57.9597 195.81 58.4023 195.436 58.4121 194.955C58.422 194.337 57.881 194.081 57.0548 193.531C56.8778 193.413 56.6909 193.296 56.5139 193.168C55.4614 192.461 54.9992 191.616 55.0582 190.556C55.1369 189.161 56.1991 188.169 57.7335 188.209C58.3138 188.228 58.9629 188.395 59.7006 188.69C59.7006 189.387 59.7006 190.084 59.7006 190.772C58.8548 190.183 58.1663 189.908 57.7433 189.898C57.2024 189.888 56.8679 190.143 56.8581 190.585C56.8483 190.89 57.0253 191.165 57.3892 191.41C57.6941 191.616 58.0089 191.813 58.3236 192.009C59.4842 192.746 60.3498 193.394 60.3498 194.818C60.3596 196.487 59.1793 197.734 57.2122 197.675C56.5434 197.656 55.7959 197.479 54.95 197.155C54.9303 196.36 54.9205 195.564 54.9106 194.778C55.7368 195.377 56.4352 195.76 57.2515 195.78L57.2319 195.79Z" fill="#EB2D4B"/>
<path d="M65.5332 188.101C65.5332 188.101 65.6119 188.101 65.6513 188.101C67.1365 191.076 68.7495 194.003 70.5003 196.89C69.7823 196.968 69.0741 197.037 68.3561 197.096C68.1397 196.684 67.9233 196.271 67.7069 195.849C66.566 195.937 65.4152 196.006 64.2644 196.055C64.0972 196.497 63.93 196.929 63.7628 197.371C63.0743 197.4 62.3858 197.42 61.6973 197.43C63.1038 194.346 64.3825 191.233 65.5234 188.101H65.5332ZM66.9791 194.366C66.5463 193.462 66.1332 192.559 65.73 191.656C65.4251 192.608 65.1103 193.551 64.7956 194.503C65.5234 194.464 66.2513 194.425 66.9889 194.366H66.9791Z" fill="#EB2D4B"/>
<path d="M82.4114 185.498C82.4114 185.498 82.4901 185.479 82.5294 185.459C84.6736 188.002 86.926 190.477 89.2964 192.883C88.6177 193.119 87.939 193.355 87.2604 193.58C86.9555 193.227 86.6407 192.873 86.3457 192.52C85.2539 192.873 84.1523 193.207 83.0507 193.521C82.9917 193.983 82.9327 194.454 82.8737 194.916C82.2048 195.103 81.5458 195.279 80.877 195.456C81.5262 192.127 82.0475 188.808 82.4212 185.498H82.4114ZM85.2834 191.253C84.6539 190.477 84.0441 189.692 83.4343 188.906C83.3654 189.898 83.2769 190.899 83.1884 191.891C83.8867 191.685 84.5851 191.469 85.2834 191.253Z" fill="#EB2D4B"/>
<path d="M71.2286 187.55C71.2876 187.55 71.3466 187.541 71.4056 187.531C73.2351 189.043 75.153 190.496 77.1595 191.891C76.8644 190.28 76.5694 188.68 76.2743 187.069C76.8448 186.961 77.4054 186.853 77.9759 186.745C78.5955 189.76 79.2053 192.775 79.825 195.799C79.766 195.809 79.7069 195.819 79.6479 195.839C77.5333 194.503 75.5071 193.089 73.5695 191.626C73.8055 193.227 74.0318 194.827 74.2678 196.428C73.6383 196.516 73.0187 196.605 72.3892 196.683C72.0056 193.649 71.622 190.605 71.2384 187.57L71.2286 187.55Z" fill="#EB2D4B"/>
<path d="M91.9519 182.689C92.542 182.464 93.1322 182.238 93.7223 181.992C94.8436 184.742 95.955 187.492 97.0665 190.231C96.4173 190.497 95.778 190.742 95.1288 190.997C94.0666 188.228 93.0142 185.459 91.9519 182.68V182.689Z" fill="#EB2D4B"/>
<path d="M96.3582 180.559C96.4074 180.539 96.4664 180.509 96.5254 180.49C98.7385 181.393 101.03 182.218 103.391 182.945C102.643 181.491 101.886 180.038 101.138 178.594C101.66 178.319 102.181 178.045 102.702 177.77C104.168 180.48 105.643 183.181 107.109 185.891C107.05 185.92 107 185.95 106.941 185.979C104.492 185.331 102.102 184.595 99.7909 183.77C100.479 185.233 101.168 186.696 101.856 188.159C101.276 188.434 100.686 188.7 100.096 188.965C98.8466 186.166 97.6073 183.367 96.3582 180.568V180.559Z" fill="#EB2D4B"/>
<path d="M10.198 189.986C8.821 189.23 7.2768 189.652 6.4506 191.056C5.62441 192.461 6.05718 194.003 7.54237 194.818C8.41774 195.299 9.47016 195.426 10.6799 195.201C10.2767 195.878 9.86359 196.556 9.46032 197.233C8.47676 197.302 7.4145 197.057 6.47027 196.536C5.42769 195.967 4.631 195.112 4.16872 194.12C3.5294 192.706 3.62776 191.194 4.43429 189.878C5.12278 188.749 6.1752 188.012 7.39483 187.718C8.62429 187.423 9.91277 187.6 11.0635 188.238C11.9586 188.729 12.6471 189.407 13.1585 190.3C12.7454 190.939 12.3225 191.577 11.9094 192.215C11.5553 191.155 11.0242 190.428 10.2177 189.986H10.198Z" fill="#EB2D4B"/>
<path d="M16.1679 192.363C17.3285 191.95 18.5874 191.999 19.7185 192.48C20.8398 192.971 21.7447 193.845 22.2463 194.994C22.7578 196.143 22.7774 197.41 22.3152 198.648C21.9217 199.679 21.2627 200.494 20.3284 201.005C19.03 201.741 17.3973 201.8 15.9515 201.181C14.722 200.651 13.7581 199.689 13.286 198.491C12.7942 197.253 12.8434 195.996 13.4237 194.808C14.004 193.62 14.9581 192.795 16.1777 192.363H16.1679ZM16.7482 199.335C18.0662 199.905 19.5513 199.266 20.1415 197.793C20.7316 196.31 20.1513 194.847 18.9219 194.317C17.6826 193.777 16.2072 194.376 15.5384 195.81C14.8794 197.234 15.4203 198.765 16.7482 199.335Z" fill="#EB2D4B"/>
<path d="M26.5355 195.446C27.2633 195.701 28.001 195.947 28.7387 196.182C29.8304 196.536 30.6566 196.86 31.2468 197.616C31.768 198.264 31.9353 199.079 31.7287 199.816C31.4336 200.886 30.6074 201.564 29.3681 201.692C29.9288 203.184 30.5189 204.677 31.1484 206.17C30.2927 205.934 29.437 205.698 28.5813 205.443C28.0797 204.078 27.5977 202.713 27.1551 201.348C27.0568 201.318 26.9486 201.279 26.8502 201.25C26.4863 202.359 26.1322 203.459 25.7683 204.569C25.0503 204.333 24.3323 204.098 23.6143 203.842C24.588 201.043 25.5716 198.245 26.5453 195.436L26.5355 195.446ZM28.0108 197.655C27.7551 198.431 27.4994 199.217 27.2436 199.993C27.3912 200.042 27.5485 200.091 27.6961 200.14C28.7878 200.484 29.4862 200.219 29.7124 199.453C29.9681 198.598 29.4862 198.127 28.3452 197.763C28.2272 197.724 28.1092 197.685 28.001 197.655H28.0108Z" fill="#EB2D4B"/>
<path d="M35.5348 198.117C36.2823 198.304 37.0298 198.481 37.7773 198.648C38.9084 198.903 39.7346 199.168 40.3838 199.875C40.9543 200.484 41.1903 201.309 41.0526 202.094C40.7379 203.823 39.1347 204.736 36.8036 204.216C36.6561 204.186 36.5184 204.147 36.3708 204.108C36.1348 205.168 35.8889 206.219 35.6528 207.28C34.8955 207.113 34.1381 206.926 33.3906 206.739C34.1086 203.862 34.8168 200.985 35.5348 198.107V198.117ZM37.2561 200.199C37.079 200.975 36.902 201.741 36.7348 202.517C36.8725 202.546 37.0003 202.576 37.138 202.605C38.2495 202.851 38.9183 202.536 39.0658 201.78C39.233 200.955 38.7117 200.523 37.5511 200.258C37.4528 200.238 37.3544 200.219 37.2659 200.189L37.2561 200.199Z" fill="#EB2D4B"/>
<path d="M44.7509 201.014C45.7246 200.288 46.9246 199.964 48.1245 200.111C49.3245 200.248 50.4064 200.838 51.2129 201.79C52.0194 202.743 52.3932 203.951 52.2948 205.267C52.2162 206.367 51.8129 207.339 51.0851 208.095C50.0621 209.175 48.5376 209.696 47.0131 209.519C45.7049 209.362 44.5345 208.723 43.7476 207.712C42.9411 206.671 42.6362 205.453 42.8526 204.147C43.069 202.841 43.7378 201.771 44.7509 201.014ZM47.2393 207.525C48.636 207.692 49.8654 206.651 50.013 205.08C50.1605 203.489 49.2064 202.252 47.8885 202.095C46.5705 201.938 45.3508 202.929 45.1246 204.501C44.8984 206.052 45.8426 207.358 47.2491 207.525H47.2393Z" fill="#EB2D4B"/>
<path d="M55.3832 200.995C56.1504 201.034 56.9077 201.054 57.6749 201.073C58.806 201.103 59.6912 201.181 60.4584 201.731C61.1371 202.203 61.5305 202.939 61.5403 203.705C61.5502 204.825 60.9699 205.699 59.8289 206.18C60.783 207.456 61.7665 208.713 62.7796 209.97C61.8944 209.99 61.019 210 60.1338 210C59.2683 208.831 58.4322 207.663 57.6257 206.474C57.5175 206.474 57.4093 206.474 57.311 206.474C57.2815 207.643 57.252 208.802 57.2225 209.97C56.4749 209.951 55.7274 209.921 54.9799 209.892C55.1176 206.926 55.2553 203.97 55.393 201.004L55.3832 200.995ZM57.4093 202.694C57.3897 203.518 57.37 204.334 57.3503 205.158C57.5077 205.158 57.6651 205.158 57.8224 205.168C58.9437 205.188 59.5437 204.736 59.5437 203.931C59.5437 203.037 58.9535 202.723 57.7733 202.703C57.6552 202.703 57.5372 202.703 57.4093 202.703V202.694Z" fill="#EB2D4B"/>
<path d="M64.6879 201.005C66.5174 200.926 68.3468 200.789 70.1664 200.612C70.2254 201.221 70.2844 201.83 70.3435 202.438C69.1829 202.556 68.0222 202.645 66.8616 202.723C66.901 203.253 66.9305 203.794 66.9698 204.324C67.9829 204.255 68.9861 204.177 69.9992 204.078C70.0582 204.687 70.1172 205.286 70.1664 205.895C69.1435 205.993 68.1108 206.072 67.0878 206.141C67.1272 206.73 67.1665 207.309 67.2059 207.899C68.4452 207.82 69.6845 207.712 70.9139 207.594C70.9729 208.213 71.0418 208.831 71.1008 209.46C69.0943 209.656 67.0878 209.804 65.0814 209.892C64.9437 206.926 64.8158 203.97 64.6781 201.005H64.6879Z" fill="#EB2D4B"/>
<path d="M81.4867 206.288C82.3031 206.131 82.6965 205.649 82.5982 205.178C82.4703 204.579 81.8113 204.461 80.7687 204.127C80.5327 204.058 80.3064 203.99 80.0802 203.911C78.7426 203.489 78.0442 202.772 77.8672 201.731C77.641 200.356 78.5852 199.129 80.3163 198.785C80.9753 198.647 81.7326 198.657 82.6277 198.755C82.785 199.433 82.9326 200.111 83.09 200.788C82.008 200.425 81.1917 200.337 80.7097 200.435C80.0999 200.553 79.795 200.896 79.8737 201.328C79.9327 201.623 80.1884 201.859 80.6507 201.996C81.0441 202.114 81.4376 202.232 81.831 202.34C83.2965 202.762 84.3883 203.175 84.7128 204.559C85.0964 206.18 84.0834 207.702 81.89 208.144C81.1523 208.291 80.2769 208.301 79.2639 208.203C79.0672 207.437 78.8606 206.661 78.6639 205.895C79.7163 206.278 80.5818 206.474 81.4867 206.288Z" fill="#EB2D4B"/>
<path d="M89.0213 196.644C89.0213 196.644 89.1098 196.615 89.159 196.605C91.4606 199.109 93.89 201.545 96.4374 203.901C95.6604 204.167 94.8834 204.432 94.1064 204.677C93.7818 204.334 93.4474 203.98 93.1228 203.636C91.8737 204.029 90.6147 204.402 89.3557 204.746C89.2672 205.217 89.1787 205.689 89.0902 206.16C88.3328 206.366 87.5755 206.563 86.8181 206.749C87.6935 203.381 88.4312 200.013 89.0213 196.644ZM91.9917 202.379C91.3229 201.613 90.6639 200.838 90.0147 200.062C89.8868 201.073 89.7393 202.085 89.5918 203.086C90.3983 202.861 91.195 202.625 91.9917 202.379Z" fill="#EB2D4B"/>
<path d="M95.2764 194.552C95.3354 194.533 95.4042 194.503 95.4632 194.484C97.8238 195.456 100.263 196.34 102.771 197.135C102.122 195.633 101.463 194.14 100.814 192.637C101.424 192.372 102.033 192.097 102.643 191.822C103.932 194.621 105.21 197.42 106.499 200.219C106.43 200.248 106.371 200.278 106.302 200.307C103.696 199.59 101.168 198.785 98.709 197.881C99.2992 199.384 99.8893 200.896 100.479 202.399C99.8008 202.664 99.132 202.919 98.4533 203.165C97.391 200.287 96.3288 197.42 95.2764 194.543V194.552Z" fill="#EB2D4B"/>
<path d="M106.912 190.929C107.296 189.76 108.112 188.798 109.204 188.189C110.296 187.59 111.555 187.413 112.784 187.708C114.023 188.002 115.046 188.748 115.735 189.878C116.315 190.821 116.551 191.842 116.374 192.902C116.148 194.385 115.164 195.731 113.778 196.497C112.597 197.145 111.23 197.322 109.991 196.968C108.712 196.605 107.738 195.79 107.158 194.601C106.568 193.413 106.499 192.156 106.912 190.929ZM112.814 194.729C114.092 194.032 114.505 192.451 113.709 191.086C112.902 189.711 111.378 189.279 110.178 189.937C108.978 190.595 108.545 192.127 109.273 193.531C109.991 194.925 111.555 195.426 112.824 194.729H112.814Z" fill="#EB2D4B"/>
<path d="M119.759 141.798L120.143 139.863L118.205 139.461C117.517 139.313 116.799 139.244 116.081 139.254C117.615 136.789 118.077 133.735 117.438 130.161L117.084 128.216L115.137 128.54C114.34 128.678 113.563 128.923 112.806 129.247C113.13 128.57 113.406 127.833 113.583 127.018C114.271 123.935 113.514 120.713 111.35 117.434L110.258 115.784L108.596 116.854C106.166 118.416 104.347 121.155 103.727 124.19C103.265 126.449 103.245 129.905 105.763 133.598L106.776 135.081C105.891 136.976 105.281 139.559 105.921 142.809L106.275 144.626C105.458 145.883 104.77 147.425 104.406 149.379L104.062 151.215C102.458 152.276 100.806 153.936 99.6159 156.538L98.8487 158.208C98.0225 158.453 97.1569 158.777 96.2717 159.249L94.5898 160.142L94.6095 160.181C94.5308 160.211 94.462 160.24 94.3833 160.28L61.0108 178.624C60.4305 178.948 59.7223 178.948 59.1322 178.624L25.7597 160.28C25.6908 160.24 25.6121 160.211 25.5335 160.181L25.5531 160.142L23.8712 159.249C22.986 158.777 22.1205 158.453 21.2943 158.208L20.5271 156.538C19.337 153.936 17.6846 152.276 16.0814 151.215L15.7371 149.379C15.3732 147.425 14.6847 145.883 13.8683 144.626L14.2224 142.809C14.8519 139.559 14.2519 136.976 13.3667 135.081L14.3798 133.598C16.8977 129.905 16.878 126.439 16.4158 124.19C15.7961 121.165 13.9765 118.425 11.5471 116.854L9.88487 115.784L8.79311 117.434C6.62925 120.713 5.87191 123.935 6.56041 127.018C6.73745 127.833 7.01285 128.57 7.33742 129.247C6.58008 128.923 5.79322 128.678 5.00637 128.54L3.0589 128.216L2.70481 130.161C2.06549 133.735 2.52777 136.789 4.06214 139.254C3.34413 139.254 2.62613 139.323 1.93763 139.461L0 139.863L0.383592 141.798C1.1311 145.539 2.79334 148.299 5.33094 150.027C5.12439 150.116 4.90801 150.194 4.7113 150.292L2.94087 151.157L3.78674 152.934C5.47848 156.479 7.84888 158.797 10.8389 159.808C10.9078 159.828 10.9865 159.848 11.0553 159.877C9.54062 160.938 8.29149 162.332 7.50463 163.903L6.61942 165.671L8.38001 166.575C10.7799 167.802 13.0815 168.372 15.2552 168.283C16.2584 168.244 17.2223 168.057 18.1665 167.743C20.4189 166.977 22.0516 165.534 23.1237 164.277C23.2221 164.355 23.3204 164.434 23.4384 164.493L59.1223 184.104C59.7026 184.428 60.4108 184.428 61.0009 184.104L96.6848 164.493C96.8029 164.434 96.9012 164.355 96.9996 164.277C98.0717 165.534 99.6946 166.977 101.957 167.743C102.901 168.067 103.875 168.244 104.868 168.283C107.042 168.372 109.343 167.802 111.743 166.575L113.504 165.671L112.619 163.903C111.832 162.332 110.583 160.938 109.068 159.877C109.137 159.857 109.215 159.838 109.284 159.808C112.284 158.797 114.655 156.489 116.337 152.934L117.182 151.157L115.412 150.292C115.215 150.194 114.999 150.116 114.792 150.027C117.32 148.309 118.992 145.549 119.74 141.798H119.759ZM11.0258 121.705C11.7536 122.638 12.2848 123.777 12.5307 124.976C12.7569 126.066 12.8159 127.588 12.1766 129.316C11.4881 128.531 10.7799 127.45 10.4947 126.115C10.1996 124.74 10.3767 123.267 11.0356 121.705H11.0258ZM9.12752 135.621C9.76684 136.534 10.4258 137.909 10.5144 139.755C9.57013 139.303 8.49804 138.587 7.70134 137.477C6.88498 136.328 6.47188 134.904 6.46205 133.215C7.4948 133.784 8.43902 134.629 9.13736 135.621H9.12752ZM8.37017 144.557C9.29473 145.176 10.416 146.217 11.1733 147.896C10.1603 147.808 8.87179 147.553 7.72102 146.796C6.54073 146.03 5.63585 144.852 5.00637 143.281C6.17681 143.438 7.36693 143.87 8.38001 144.547L8.37017 144.557ZM8.6259 153.258C9.79635 153.121 11.0553 153.258 12.2061 153.671C13.2585 154.044 14.5962 154.78 15.7371 156.224C14.7142 156.401 13.4257 156.44 12.1569 156.018C10.8094 155.566 9.62914 154.643 8.6259 153.258ZM16.9174 163.943C15.5797 164.404 14.0749 164.385 12.4421 163.894C13.288 163.069 14.3699 162.421 15.5306 162.047C16.5928 161.704 18.1075 161.478 19.8878 161.93C19.1894 162.686 18.2059 163.501 16.9174 163.943ZM112.491 137.467C111.694 138.587 110.622 139.294 109.678 139.745C109.766 137.909 110.425 136.534 111.065 135.611C111.763 134.609 112.697 133.775 113.74 133.205C113.73 134.894 113.317 136.318 112.501 137.467H112.491ZM107.661 124.966C107.907 123.777 108.438 122.628 109.166 121.696C109.825 123.247 110.002 124.72 109.707 126.105C109.412 127.44 108.714 128.521 108.025 129.306C107.386 127.578 107.445 126.056 107.671 124.966H107.661ZM103.275 163.943C101.986 163.501 101.003 162.695 100.304 161.93C102.094 161.478 103.609 161.704 104.662 162.047C105.822 162.421 106.904 163.078 107.75 163.894C106.117 164.385 104.612 164.394 103.275 163.943ZM108.035 156.018C106.766 156.45 105.468 156.41 104.455 156.224C105.596 154.78 106.943 154.044 107.986 153.671C109.137 153.258 110.386 153.13 111.566 153.258C110.563 154.633 109.383 155.556 108.035 156.018ZM112.471 146.806C111.32 147.553 110.032 147.808 109.019 147.906C109.776 146.227 110.897 145.186 111.822 144.567C112.835 143.89 114.015 143.457 115.196 143.3C114.566 144.872 113.661 146.04 112.481 146.816L112.471 146.806Z" fill="#EB2D4B"/>
<path d="M115.069 95.6126H96.7546V91.2131C96.7546 90.3195 96.2825 89.4945 95.5153 89.0428C94.7481 88.5911 93.794 88.5813 93.017 89.0134L80.6339 95.868L74.7128 54.4457C74.4767 52.1871 73.8964 50.2033 72.9817 48.5437C70.1294 43.3586 64.2673 40 58.0512 40H34.3373C31.8194 40 29.5277 41.0115 27.8359 42.6417C26.8523 41.0999 24.9541 40 23.1246 40C19.3871 40 16.3478 43.0738 16.3478 46.8546V52.0201C16.3478 53.4048 17.4789 54.5341 18.8658 54.5341C20.2526 54.5341 21.3837 53.4048 21.3837 52.0201V46.8546C21.3837 45.8529 22.1607 45.028 23.1148 45.028C24.0688 45.028 24.8459 46.5502 24.8459 47.5518V48.858C24.8459 48.9463 24.8655 49.0249 24.8754 49.1035C24.8754 49.2704 24.8459 49.4374 24.8459 49.6043V53.7485C24.8459 58.1676 27.8064 61.9092 31.8194 63.0189L31.8882 72.6625C31.8882 73.1928 32.0653 73.7132 32.3898 74.1453L39.265 83.3765C39.9141 84.2505 41.0452 84.604 42.078 84.2603C43.1107 83.9166 43.8091 82.9542 43.8091 81.874V66.1712C43.8091 63.451 45.9533 61.2316 48.5991 61.2316C49.081 61.2316 49.5531 61.3003 50.0056 61.4476C51.058 61.7815 51.9334 62.5377 52.4743 63.5885C53.094 64.7767 53.2218 66.1909 52.8284 67.4872L40.5731 96.3982L27.1572 88.9642C26.3802 88.5322 25.4262 88.542 24.659 88.9937C23.8918 89.4454 23.4197 90.2704 23.4197 91.164V95.5635H5.1253C3.91551 95.5635 2.93195 96.5456 2.93195 97.7535C2.93195 98.9614 3.91551 99.9434 5.1253 99.9434H23.4394V102.821H10.2792C9.06942 102.821 8.08585 103.803 8.08585 105.011C8.08585 106.219 9.06942 107.201 10.2792 107.201H23.4394V110.078H15.5413C14.3315 110.078 13.3479 111.06 13.3479 112.268C13.3479 113.476 14.3315 114.458 15.5413 114.458H23.4394V151.657C23.4394 152.571 23.9311 153.415 24.7377 153.857L58.8773 172.771C59.2609 172.977 59.674 173.085 60.097 173.085C60.5199 173.085 60.9428 172.977 61.3166 172.771L95.4563 153.857C96.253 153.415 96.7546 152.571 96.7546 151.657V114.458H104.653C105.862 114.458 106.846 113.476 106.846 112.268C106.846 111.06 105.862 110.078 104.653 110.078H96.7546V107.201H109.915C111.125 107.201 112.108 106.219 112.108 105.011C112.108 103.803 111.125 102.821 109.915 102.821H96.7546V99.9434H115.069C116.278 99.9434 117.262 98.9614 117.262 97.7535C117.262 96.5456 116.278 95.5635 115.069 95.5635V95.6126Z" fill="#EB2D4B"/>
<path d="M84.3909 120.929C83.8303 120.586 83.132 120.546 82.532 120.821L64.6605 129.031C64.4245 129.139 64.2081 129.296 64.0311 129.493L60.0968 133.853L56.1625 129.493C55.9855 129.296 55.7789 129.139 55.533 129.031L37.6616 120.821C37.0616 120.546 36.3633 120.586 35.8026 120.929C35.242 121.273 34.9076 121.872 34.9076 122.511V151.657C34.9076 152.325 35.2715 152.934 35.8518 153.278L59.1132 166.643C59.1132 166.643 59.1132 166.643 59.1231 166.643C59.1231 166.643 59.1231 166.643 59.1329 166.653C59.428 166.82 59.7624 166.898 60.087 166.898C60.4115 166.898 60.7459 166.82 61.041 166.653C61.041 166.653 61.041 166.653 61.0508 166.643C61.0607 166.633 61.0509 166.643 61.0607 166.643L84.3221 153.278C84.9122 152.944 85.2762 152.325 85.2762 151.657V122.511C85.2762 121.872 84.9417 121.273 84.3811 120.929H84.3909ZM38.7632 125.476L53.5266 132.262L58.169 137.408V161.743L38.7632 150.597V125.486V125.476ZM81.4304 150.587L62.0246 161.733V137.398L66.667 132.252L68.6833 131.329V141.002C68.6833 141.631 69.0571 142.151 69.6571 142.367C70.2374 142.583 70.9062 142.407 71.3095 141.945L73.2078 139.775L75.4896 140.315C75.9421 140.423 76.4044 140.325 76.7683 140.05C77.1322 139.775 77.3387 139.352 77.3387 138.901V127.342L81.4206 125.466V150.577L81.4304 150.587Z" fill="white"/>
<path d="M60.0966 94.2275C52.0313 94.2275 45.4709 100.778 45.4709 108.83C45.4709 116.883 52.0313 123.433 60.0966 123.433C68.1618 123.433 74.7222 116.883 74.7222 108.83C74.7222 100.778 68.1618 94.2275 60.0966 94.2275ZM65.457 118.435C64.6702 118.877 63.8341 119.22 62.9391 119.466C63.8145 117.001 64.2177 113.328 62.0145 108.879C62.9194 107.544 63.9128 106.591 64.8964 105.914C67.375 111.629 65.8701 117.158 65.457 118.435ZM49.1003 108.143C49.1396 107.524 49.2085 106.915 49.3462 106.326C51.0871 108.261 54.0968 110.372 58.8966 110.569C59.5949 112.002 59.9294 113.318 60.0375 114.487C53.6837 113.475 49.7789 108.978 49.1003 108.133V108.143ZM65.5357 99.2654C66.3717 99.7368 67.1586 100.287 67.8372 100.954C65.2406 101.406 61.7588 102.85 59.0146 106.994C57.4901 106.915 56.2016 106.621 55.1492 106.169C59.2015 100.689 65.4964 99.4421 65.5652 99.4323L65.5357 99.2752V99.2654ZM60.0966 109.007V108.968L60.1261 108.988L60.0966 109.007ZM59.7228 97.8218C57.3131 99.0591 54.4902 101.043 52.2182 104.166C51.6477 103.577 51.2346 103.027 50.9789 102.594C52.9067 99.7957 56.1033 97.9396 59.7228 97.8218ZM50.5264 114.281C52.769 115.891 55.8377 117.462 59.6638 118.032C59.4277 118.769 59.1425 119.348 58.8966 119.76C55.2967 119.368 52.2477 117.276 50.5264 114.281ZM69.8339 113.966C69.9716 111.276 69.6569 107.937 68.1618 104.509C68.988 104.333 69.6962 104.303 70.1683 104.313C70.7978 105.698 71.1617 107.22 71.1617 108.83C71.1617 110.696 70.6503 112.425 69.8339 113.966Z" fill="white"/>
<path d="M35.4089 51.9614C33.9041 51.9614 32.6844 53.2086 32.6844 54.7406C32.6844 56.2726 33.9041 57.5197 35.4089 57.5197C36.9138 57.5197 38.1334 56.2726 38.1334 54.7406C38.1334 53.2086 36.9138 51.9614 35.4089 51.9614Z" fill="white"/>
<path d="M176.74 84.0835C177.767 84.0835 178.451 84.7666 178.451 85.8148V88.9594C178.451 89.9959 177.767 90.6908 176.74 90.6908H162.208V95.9436H174.9C175.938 95.9436 176.611 96.6267 176.611 97.6749V100.843C176.611 101.868 175.95 102.551 174.9 102.551H162.208V108.534H176.74C177.767 108.534 178.451 109.217 178.451 110.265V113.433C178.451 114.458 177.767 115.141 176.74 115.141H156.664C155.626 115.141 154.93 114.458 154.93 113.433V85.8266C154.93 84.7902 155.614 84.0953 156.664 84.0953H176.74V84.0835Z" fill="white"/>
<path d="M189.067 84.0835C190.094 84.0835 190.778 84.7666 190.778 85.8148V101.126C190.778 105.802 193.267 109.052 197.454 109.052C201.642 109.052 204.107 105.802 204.107 101.126V85.8148C204.107 84.7784 204.791 84.0835 205.818 84.0835H209.64C210.666 84.0835 211.35 84.7666 211.35 85.7913V101.562C211.35 110.03 205.641 115.636 197.454 115.636C189.268 115.636 183.523 109.983 183.523 101.562V85.8148C183.523 84.7784 184.207 84.0835 185.257 84.0835H189.079H189.067Z" fill="white"/>
<path d="M218.723 106.284C219.077 105.884 219.525 105.684 219.962 105.684C220.363 105.684 220.764 105.837 221.141 106.178C223.654 108.346 225.695 109.052 228.372 109.052C231.416 109.052 233.386 107.816 233.386 105.802C233.386 103.917 231.298 103.057 226.532 102.233C220.056 101.126 216.682 97.8046 216.682 92.9522C216.682 87.3931 222.12 83.5771 228.337 83.5771C232.088 83.5771 235.415 84.5076 239.626 87.9231C240.074 88.2764 240.286 88.7475 240.286 89.2304C240.286 89.6073 240.133 90.0078 239.838 90.3611L237.821 92.7755C237.443 93.2231 236.983 93.4233 236.512 93.4233C236.111 93.4233 235.733 93.2937 235.356 93.0228C232.56 90.9146 230.566 90.1844 228.278 90.1844C225.612 90.1844 224.043 91.2444 224.043 92.9051C224.043 94.2359 225.553 95.1899 228.927 95.7906C236.559 97.1215 240.735 100.195 240.735 105.625C240.735 111.537 235.591 115.636 228.29 115.636C223.76 115.636 220.15 114.482 216.659 111.184C216.281 110.831 216.081 110.383 216.081 109.924C216.081 109.5 216.258 109.064 216.588 108.687L218.723 106.296V106.284Z" fill="white"/>
<path d="M267.618 84.0835C268.644 84.0835 269.328 84.7666 269.328 85.8148V88.9594C269.328 89.9959 268.644 90.6908 267.618 90.6908H253.085V95.9436H265.778C266.816 95.9436 267.488 96.6267 267.488 97.6749V100.843C267.488 101.868 266.827 102.551 265.778 102.551H253.085V108.534H267.618C268.644 108.534 269.328 109.217 269.328 110.265V113.433C269.328 114.458 268.644 115.141 267.618 115.141H247.541C246.503 115.141 245.807 114.458 245.807 113.433V85.8266C245.807 84.7902 246.491 84.0953 247.541 84.0953H267.618V84.0835Z" fill="white"/>
<path d="M288.143 84.0836C294.619 84.0836 298.193 88.6886 298.193 92.8108C298.193 94.9543 297.237 97.0037 295.197 98.1696V98.417C298.122 99.9834 299.632 102.798 299.632 105.684C299.632 110.336 296.176 115.118 288.225 115.118H276.394C275.356 115.118 274.66 114.435 274.66 113.41V85.8031C274.66 84.7667 275.344 84.0718 276.394 84.0718H288.131L288.143 84.0836ZM281.903 90.679V95.6374H288.119C290.006 95.6374 290.962 94.3537 290.962 93.0935C290.962 91.8333 290.03 90.679 288.143 90.679H281.903ZM281.903 108.51H288.473C291.292 108.51 292.401 106.956 292.377 105.389C292.377 103.799 291.245 102.198 288.544 102.198H281.914V108.51H281.903Z" fill="white"/>
<path d="M312.278 113.422C312.278 114.446 311.593 115.129 310.544 115.129H306.722C305.695 115.129 305.011 114.446 305.011 113.422V85.7913C305.011 84.7666 305.695 84.0835 306.722 84.0835H310.544C311.582 84.0835 312.278 84.7666 312.278 85.7913V113.422Z" fill="white"/>
<path d="M333.168 115.636C324.203 115.636 317.397 108.723 317.397 99.7012C317.397 90.6795 324.168 83.5894 333.168 83.5894C342.169 83.5894 348.881 90.4322 348.881 99.7012C348.881 108.97 342.074 115.636 333.168 115.636ZM341.555 99.7012C341.555 94.1657 338.028 90.1731 333.168 90.1731C328.308 90.1731 324.711 94.1657 324.711 99.7012C324.711 105.237 328.332 109.053 333.168 109.053C338.005 109.053 341.555 105.001 341.555 99.7012Z" fill="white"/>
<path d="M181.612 156.352C181.789 156.728 181.859 157.058 181.859 157.376C181.859 158.201 181.234 158.707 180.078 158.707H175.902C175.124 158.707 174.393 158.224 174.109 157.506L171.644 151.64H160.013L157.571 157.506C157.265 158.212 156.545 158.707 155.778 158.707H151.579C150.423 158.707 149.81 158.201 149.81 157.353C149.81 157.07 149.904 156.728 150.057 156.352L162.349 128.862C162.679 128.156 163.41 127.661 164.189 127.661H167.445C168.223 127.661 168.955 128.144 169.261 128.862L181.6 156.352H181.612ZM167.103 139.71C166.572 138.273 166.124 136.647 165.899 135.917H165.722C165.475 136.671 164.991 138.226 164.484 139.639L162.372 145.646H169.297L167.103 139.71Z" fill="white"/>
<path d="M196.982 148.637H192.971V156.988C192.971 158.012 192.287 158.695 191.237 158.695H187.415C186.389 158.695 185.705 158.012 185.705 156.988V129.381C185.705 128.344 186.389 127.649 187.415 127.649H198.315C205.688 127.649 210.583 131.819 210.583 138.19C210.583 142.16 208.247 145.457 204.885 147.342L212.364 156.387C212.789 156.893 212.989 157.341 212.989 157.718C212.989 158.318 212.411 158.695 211.279 158.695H206.525C205.747 158.695 204.909 158.295 204.414 157.694L196.982 148.637ZM192.971 142.042H199.011C201.583 142.042 203.246 140.605 203.246 138.214C203.246 135.823 201.583 134.268 199.011 134.268H192.971V142.042Z" fill="white"/>
<path d="M228.454 148.637H224.443V156.988C224.443 158.012 223.759 158.695 222.709 158.695H218.899C217.873 158.695 217.189 158.012 217.189 156.988V129.381C217.189 128.344 217.873 127.649 218.899 127.649H229.799C237.171 127.649 242.067 131.819 242.067 138.19C242.067 142.16 239.731 145.457 236.369 147.342L243.848 156.387C244.273 156.893 244.473 157.341 244.473 157.718C244.473 158.318 243.895 158.695 242.763 158.695H238.009C237.23 158.695 236.393 158.295 235.897 157.694L228.466 148.637H228.454ZM224.443 142.042H230.483C233.055 142.042 234.718 140.605 234.718 138.214C234.718 135.823 233.055 134.268 230.483 134.268H224.443V142.042Z" fill="white"/>
<path d="M261.754 159.202C252.789 159.202 245.982 152.288 245.982 143.267C245.982 134.245 252.753 127.155 261.754 127.155C270.754 127.155 277.466 133.998 277.466 143.267C277.466 152.536 270.66 159.202 261.754 159.202ZM270.141 143.267C270.141 137.731 266.614 133.738 261.754 133.738C256.894 133.738 253.296 137.731 253.296 143.267C253.296 148.802 256.917 152.618 261.754 152.618C266.59 152.618 270.141 148.567 270.141 143.267Z" fill="white"/>
<path d="M307.547 127.661C308.585 127.661 309.281 128.344 309.281 129.392V156.999C309.281 158.024 308.597 158.707 307.547 158.707H304.067C303.289 158.707 302.487 158.283 302.027 157.671L289.818 140.77H289.593C289.688 141.818 289.818 143.738 289.818 146.176V157.011C289.818 158.048 289.133 158.719 288.084 158.719H284.262C283.235 158.719 282.551 158.059 282.551 157.011V129.404C282.551 128.368 283.235 127.673 284.262 127.673H287.659C288.437 127.673 289.251 128.097 289.7 128.709L302.062 145.61H302.286C302.192 144.609 302.015 142.642 302.015 140.652V129.392C302.015 128.356 302.699 127.661 303.725 127.661H307.535H307.547Z" fill="white"/>
<path d="M323.153 156.988C323.153 158.012 322.469 158.695 321.419 158.695H317.597C316.571 158.695 315.887 158.012 315.887 156.988V129.357C315.887 128.333 316.571 127.649 317.597 127.649H321.419C322.457 127.649 323.153 128.333 323.153 129.357V156.988Z" fill="white"/>
<path d="M354 156.988C354 158.012 353.339 158.695 352.289 158.695H329.747C328.721 158.695 328.036 158.012 328.036 156.988V154.444C328.036 153.666 328.367 152.759 328.862 152.159L343.548 134.257H330.101C329.075 134.257 328.39 133.574 328.39 132.525V129.381C328.39 128.344 329.075 127.649 330.101 127.649H351.912C352.95 127.649 353.646 128.333 353.646 129.381L353.622 131.819C353.622 132.596 353.316 133.503 352.796 134.104L337.886 152.088H352.289C353.327 152.088 354 152.771 354 153.819V156.988Z" fill="white"/>
<path d="M260.904 122.083C261.241 121.573 261.811 121.266 262.422 121.266H263.211C264.66 121.266 265.527 122.877 264.729 124.087L264.02 125.16C263.684 125.67 263.113 125.977 262.502 125.977H261.714C260.265 125.977 259.398 124.365 260.196 123.156L260.904 122.083Z" fill="white"/>
<path d="M190.082 176.491C190.259 176.291 190.495 176.185 190.719 176.185C190.919 176.185 191.132 176.267 191.32 176.432C192.606 177.539 193.656 177.904 195.024 177.904C196.581 177.904 197.596 177.268 197.596 176.232C197.596 175.266 196.522 174.818 194.081 174.406C190.766 173.841 189.032 172.133 189.032 169.648C189.032 166.798 191.816 164.843 195.001 164.843C196.923 164.843 198.622 165.314 200.793 167.069C201.017 167.245 201.135 167.493 201.135 167.74C201.135 167.929 201.052 168.141 200.91 168.317L199.872 169.554C199.684 169.778 199.436 169.884 199.2 169.884C199 169.884 198.799 169.813 198.61 169.683C197.183 168.6 196.157 168.235 194.989 168.235C193.621 168.235 192.818 168.777 192.818 169.636C192.818 170.319 193.597 170.802 195.319 171.108C199.224 171.792 201.371 173.37 201.371 176.149C201.371 179.176 198.728 181.273 194.989 181.273C192.665 181.273 190.813 180.684 189.032 178.988C188.843 178.811 188.737 178.576 188.737 178.34C188.737 178.128 188.831 177.892 188.996 177.704L190.093 176.479L190.082 176.491Z" fill="#EB2D4B"/>
<path d="M217.107 181.284C212.223 181.284 209.003 177.869 209.003 173.064C209.003 168.258 212.223 164.854 217.107 164.854C219.678 164.854 221.448 165.691 223.028 167.34C223.205 167.516 223.288 167.752 223.288 167.964C223.288 168.199 223.193 168.435 223.005 168.635L221.896 169.789C221.719 169.966 221.518 170.06 221.318 170.06C221.105 170.06 220.881 169.966 220.693 169.778C219.631 168.706 218.569 168.235 217.095 168.235C214.688 168.235 212.707 170.143 212.707 173.064C212.707 175.984 214.688 177.916 217.095 177.916C218.51 177.916 219.702 177.28 220.681 176.373C220.881 176.185 221.105 176.09 221.318 176.09C221.53 176.09 221.731 176.185 221.908 176.349L222.993 177.433C223.193 177.633 223.288 177.869 223.288 178.104C223.288 178.316 223.205 178.54 223.04 178.717C221.459 180.413 219.572 181.284 217.107 181.284Z" fill="#EB2D4B"/>
<path d="M245.334 180.142C245.334 180.66 244.98 181.014 244.461 181.014H242.503C241.984 181.014 241.63 180.66 241.63 180.142V174.548H235.201V180.142C235.201 180.66 234.847 181.014 234.317 181.014H232.358C231.839 181.014 231.486 180.66 231.486 180.142V165.997C231.486 165.467 231.839 165.114 232.358 165.114H234.317C234.847 165.114 235.201 165.467 235.201 165.997V171.156H241.63V165.997C241.63 165.467 241.984 165.114 242.503 165.114H244.461C244.98 165.114 245.334 165.467 245.334 165.997V180.142Z" fill="#EB2D4B"/>
<path d="M261.873 181.284C257.284 181.284 253.793 177.739 253.793 173.122C253.793 168.506 257.261 164.866 261.873 164.866C266.485 164.866 269.918 168.376 269.918 173.122C269.918 177.869 266.426 181.284 261.873 181.284ZM266.167 173.122C266.167 170.284 264.362 168.246 261.873 168.246C259.384 168.246 257.544 170.296 257.544 173.122C257.544 175.949 259.396 177.916 261.873 177.916C264.35 177.916 266.167 175.843 266.167 173.122Z" fill="#EB2D4B"/>
<path d="M285.665 181.284C281.076 181.284 277.585 177.739 277.585 173.122C277.585 168.506 281.053 164.866 285.665 164.866C290.277 164.866 293.71 168.376 293.71 173.122C293.71 177.869 290.218 181.284 285.665 181.284ZM289.959 173.122C289.959 170.284 288.154 168.246 285.665 168.246C283.176 168.246 281.336 170.296 281.336 173.122C281.336 175.949 283.188 177.916 285.665 177.916C288.142 177.916 289.959 175.843 289.959 173.122Z" fill="#EB2D4B"/>
<path d="M305.884 177.633H313.103C313.622 177.633 313.976 177.986 313.976 178.516V180.142C313.976 180.66 313.622 181.013 313.103 181.013H303.041C302.522 181.013 302.168 180.66 302.168 180.142V165.973C302.168 165.455 302.522 165.102 303.041 165.102H304.999C305.53 165.102 305.884 165.455 305.884 165.973V177.633Z" fill="#EB2D4B"/>
<path d="M230.613 77.8296C230.613 78.2419 230.33 78.5245 229.905 78.5245H228.36C227.947 78.5245 227.664 78.2419 227.664 77.8296V66.6055C227.664 66.1933 227.947 65.9106 228.36 65.9106H229.905C230.33 65.9106 230.613 66.1933 230.613 66.6055V77.8414V77.8296Z" fill="#EB2D4B"/>
<path d="M251.799 65.9106C252.212 65.9106 252.495 66.1933 252.495 66.6173V67.9011C252.495 68.3251 252.212 68.596 251.799 68.596H245.889V70.7277H251.044C251.469 70.7277 251.74 71.0104 251.74 71.4344V72.7181C251.74 73.1304 251.469 73.413 251.044 73.413H245.889V75.8392H251.799C252.212 75.8392 252.495 76.1219 252.495 76.5459V77.8296C252.495 78.2419 252.212 78.5245 251.799 78.5245H243.636C243.211 78.5245 242.928 78.2419 242.928 77.8296V66.6173C242.928 66.1933 243.211 65.9106 243.636 65.9106H251.799Z" fill="#EB2D4B"/>
<path d="M269.41 65.9106C272.418 65.9106 274.376 67.6066 274.399 70.1977C274.423 72.7652 272.406 74.4377 269.41 74.4377H267.239V77.8296C267.239 78.2419 266.956 78.5245 266.531 78.5245H264.986C264.573 78.5245 264.29 78.2419 264.29 77.8296V66.6055C264.29 66.1933 264.573 65.9106 264.986 65.9106H269.41ZM271.415 70.1977C271.415 69.2202 270.754 68.596 269.693 68.596H267.239V71.7524H269.693C270.754 71.7524 271.415 71.1635 271.415 70.1977Z" fill="#EB2D4B"/>
</svg>
