<?xml version="1.0" standalone="no"?>
<!DOCTYPE svg PUBLIC "-//W3C//DTD SVG 20010904//EN"
 "http://www.w3.org/TR/2001/REC-SVG-20010904/DTD/svg10.dtd">
<svg version="1.0" xmlns="http://www.w3.org/2000/svg"
 width="200.000000pt" height="200.000000pt" viewBox="0 0 200.000000 200.000000"
 preserveAspectRatio="xMidYMid meet">

<g transform="translate(0.000000,200.000000) scale(0.100000,-0.100000)"
fill="#000000" stroke="none">
<path d="M215 1225 c-16 -15 -25 -36 -25 -54 0 -26 6 -33 35 -45 19 -8 35 -21
35 -29 0 -22 -27 -39 -50 -32 -19 6 -20 3 -20 -128 0 -121 2 -137 21 -161 20
-26 22 -26 150 -26 l129 0 0 44 c0 24 11 77 24 117 35 106 20 160 -47 177 -42
11 -57 36 -35 58 16 16 20 16 63 0 97 -38 125 -121 81 -247 -32 -94 -35 -149
-6 -149 11 0 20 4 20 9 0 5 24 32 53 60 31 30 46 51 36 51 -8 0 -30 -16 -49
-35 -19 -19 -41 -35 -49 -35 -10 1 0 15 26 39 36 33 39 39 25 48 -25 16 -2 49
32 46 l26 -2 0 135 c0 130 -1 136 -25 159 -23 24 -30 25 -145 25 l-120 0 0
-37 c0 -21 -12 -69 -25 -108 -32 -91 -32 -95 9 -56 19 18 36 29 39 23 4 -5
-12 -26 -33 -47 -59 -58 -48 -65 15 -10 74 63 83 50 11 -16 -31 -28 -53 -55
-50 -61 4 -5 33 16 65 48 32 32 62 54 66 50 5 -5 -18 -32 -50 -60 -32 -29 -55
-55 -51 -59 4 -3 27 12 52 33 58 52 78 52 27 0 -32 -33 -36 -42 -25 -54 19
-24 5 -46 -31 -46 -105 0 -161 130 -110 258 12 29 21 65 21 79 l0 27 -40 -39
c-23 -22 -40 -33 -40 -25 0 8 19 31 43 51 23 20 39 40 35 44 -4 5 -30 -13 -57
-38 -64 -60 -89 -61 -31 -2 40 40 42 45 22 45 -13 0 -34 -11 -47 -25z"/>
<path d="M1122 1205 c4 -21 2 -24 -13 -20 -34 11 -59 -12 -59 -54 0 -47 14
-60 63 -58 l37 1 0 78 c0 65 -3 78 -16 78 -12 0 -15 -7 -12 -25z m6 -71 c3
-23 -21 -49 -38 -39 -5 3 -10 20 -10 36 0 26 3 30 23 27 13 -2 23 -11 25 -24z"/>
<path d="M1180 1215 c0 -9 5 -15 11 -13 6 2 11 8 11 13 0 5 -5 11 -11 13 -6 2
-11 -4 -11 -13z"/>
<path d="M810 1145 c0 -60 3 -75 15 -75 10 0 15 10 15 30 0 17 4 30 9 30 5 0
19 -13 31 -30 12 -16 28 -30 36 -30 12 0 11 6 -7 31 -16 23 -19 33 -10 42 17
17 13 64 -5 71 -9 3 -31 6 -50 6 l-34 0 0 -75z m65 30 c0 -11 -8 -21 -17 -23
-14 -3 -18 3 -18 23 0 20 4 26 18 23 9 -2 17 -12 17 -23z"/>
<path d="M1350 1162 c0 -66 18 -92 63 -92 42 0 57 24 57 91 0 46 -3 59 -15 59
-12 0 -15 -13 -15 -59 0 -45 -4 -60 -16 -65 -29 -11 -44 13 -44 70 0 41 -4 54
-15 54 -12 0 -15 -13 -15 -58z"/>
<path d="M1500 1145 c0 -60 3 -75 15 -75 10 0 15 10 15 30 0 25 4 30 23 30 29
0 47 18 47 45 0 31 -19 45 -62 45 l-38 0 0 -75z m65 30 c0 -11 -8 -21 -17 -23
-14 -3 -18 3 -18 23 0 20 4 26 18 23 9 -2 17 -12 17 -23z"/>
<path d="M950 1180 c-15 -10 -11 -12 24 -14 29 -2 32 -26 3 -26 -31 0 -51 -23
-42 -49 5 -17 14 -20 51 -19 l44 2 0 46 c0 25 -5 51 -12 58 -14 14 -47 15 -68
2z m47 -75 c-4 -8 -13 -15 -22 -15 -21 0 -19 28 3 32 22 5 26 2 19 -17z"/>
<path d="M1180 1131 c0 -48 3 -61 15 -61 13 0 15 11 13 57 -4 81 -28 85 -28 4z"/>
<path d="M1240 1170 c-24 -24 -25 -48 -4 -78 18 -26 56 -29 78 -6 24 23 20 70
-6 88 -30 21 -44 20 -68 -4z m58 -42 c-3 -36 -24 -44 -41 -17 -14 23 -2 49 23
49 18 0 21 -5 18 -32z"/>
<path d="M640 792 c-43 -39 -44 -41 -19 -42 30 0 72 40 67 65 -2 14 -12 9 -48
-23z"/>
</g>
</svg>
