<svg width="40" height="40" viewBox="0 0 40 40" fill="none" xmlns="http://www.w3.org/2000/svg">
<path d="M20 36.6667C29.205 36.6667 36.6667 29.205 36.6667 20C36.6667 10.795 29.205 3.33337 20 3.33337C10.795 3.33337 3.33337 10.795 3.33337 20C3.33337 29.205 10.795 36.6667 20 36.6667Z" stroke="white" stroke-width="3" stroke-linejoin="round"/>
<path d="M14.1667 21.5833C14.6087 21.5833 15.0326 21.4077 15.3452 21.0952C15.6577 20.7826 15.8333 20.3587 15.8333 19.9167C15.8333 19.4746 15.6577 19.0507 15.3452 18.7382C15.0326 18.4256 14.6087 18.25 14.1667 18.25C13.7246 18.25 13.3007 18.4256 12.9882 18.7382C12.6756 19.0507 12.5 19.4746 12.5 19.9167C12.5 20.3587 12.6756 20.7826 12.9882 21.0952C13.3007 21.4077 13.7246 21.5833 14.1667 21.5833Z" fill="white"/>
<path d="M18.2917 24.0417C18.8342 23.5006 19.2644 22.8576 19.5576 22.1497C19.8508 21.4418 20.0011 20.683 20.0001 19.9167C20.0011 19.1505 19.8508 18.3917 19.5576 17.6838C19.2644 16.9759 18.8342 16.3329 18.2917 15.7917M22.4167 28.1659C23.5017 27.0837 24.3621 25.7977 24.9484 24.3819C25.5348 22.9661 25.8355 21.4483 25.8334 19.9159C25.8334 16.6942 24.5276 13.7776 22.4167 11.6667" stroke="white" stroke-width="3" stroke-linecap="round" stroke-linejoin="round"/>
</svg>
