<svg width="40" height="40" viewBox="0 0 40 40" fill="none" xmlns="http://www.w3.org/2000/svg">
<path d="M5.25641 19.8648C5.25567 22.4845 5.96086 25.0423 7.30178 27.2969L5.12817 35L13.2499 32.933C15.4962 34.12 18.0131 34.742 20.5707 34.7421H20.5775C29.0208 34.7421 35.8938 28.0733 35.8974 19.8766C35.899 15.9046 34.3069 12.1697 31.4141 9.35972C28.5219 6.55 24.6753 5.00181 20.5768 5C12.1326 5 5.26002 11.6684 5.25654 19.8648" fill="url(#paint0_linear_1548_2370)"/>
<path d="M4.23543 19.856C4.23456 22.6506 4.96324 25.3787 6.34855 27.7834L4.10254 36L12.4948 33.7953C14.8071 35.0585 17.4106 35.7245 20.0597 35.7255H20.0665C28.7913 35.7255 35.8937 28.6114 35.8974 19.8687C35.8989 15.6316 34.2535 11.6474 31.2648 8.65017C28.2757 5.65334 24.3013 4.00174 20.0665 4C11.3403 4 4.23891 11.1131 4.23543 19.856ZM9.23319 27.3693L8.91983 26.8709C7.60258 24.7723 6.90732 22.3472 6.90831 19.857C6.91117 12.5901 12.8136 6.678 20.0715 6.678C23.5863 6.67949 26.8895 8.05234 29.374 10.5432C31.8583 13.0343 33.2254 16.3457 33.2245 19.8677C33.2213 27.1345 27.3188 33.0474 20.0665 33.0474H20.0613C17.6999 33.0461 15.384 32.4107 13.3643 31.21L12.8836 30.9244L7.90352 32.2326L9.23319 27.3692V27.3693Z" fill="url(#paint1_linear_1548_2370)"/>
<path d="M16.4798 13.6504C16.1773 13.032 15.859 13.0195 15.5714 13.0086C15.3358 12.9993 15.0666 13 14.7975 13C14.5283 13 14.0908 13.0932 13.721 13.4646C13.3508 13.8364 12.3077 14.7348 12.3077 16.562C12.3077 18.3894 13.7546 20.1553 13.9563 20.4033C14.1582 20.6509 16.7495 24.5206 20.8533 26.0093C24.264 27.2465 24.9581 27.0004 25.6983 26.9384C26.4387 26.8766 28.0872 26.0402 28.4236 25.1729C28.7601 24.3058 28.7601 23.5625 28.6592 23.4072C28.5583 23.2524 28.289 23.1595 27.8853 22.9738C27.4814 22.7881 25.4964 21.8895 25.1263 21.7656C24.7562 21.6417 24.487 21.5799 24.2178 21.9518C23.9485 22.3231 23.1753 23.1595 22.9396 23.4072C22.7042 23.6554 22.4685 23.6863 22.0649 23.5006C21.6609 23.3142 20.3606 22.9225 18.8179 21.6574C17.6176 20.6729 16.8073 19.4572 16.5717 19.0853C16.3362 18.714 16.5465 18.5127 16.749 18.3277C16.9304 18.1613 17.1529 17.894 17.3549 17.6772C17.5562 17.4603 17.6234 17.3055 17.7581 17.0578C17.8928 16.8099 17.8254 16.593 17.7246 16.4073C17.6234 16.2215 16.8388 14.3847 16.4798 13.6504Z" fill="white"/>
<defs>
<linearGradient id="paint0_linear_1548_2370" x1="1543.59" y1="3005" x2="1543.59" y2="5" gradientUnits="userSpaceOnUse">
<stop stop-color="#1FAF38"/>
<stop offset="1" stop-color="#60D669"/>
</linearGradient>
<linearGradient id="paint1_linear_1548_2370" x1="1593.85" y1="3204" x2="1593.85" y2="4" gradientUnits="userSpaceOnUse">
<stop stop-color="#F9F9F9"/>
<stop offset="1" stop-color="white"/>
</linearGradient>
</defs>
</svg>
