<svg width="46" height="46" viewBox="0 0 46 46" fill="none" xmlns="http://www.w3.org/2000/svg">
<path d="M35.7696 17.0773L17.6571 6.68979C16.677 6.12384 15.5646 5.82736 14.4329 5.83047C13.3011 5.83358 12.1903 6.13616 11.2134 6.70749C10.2364 7.27881 9.42803 8.09853 8.87039 9.08337C8.31275 10.0682 8.02569 11.1831 8.03837 12.3148L8.03837 33.1648C8.03837 34.8655 8.71397 36.4965 9.91654 37.6991C11.1191 38.9017 12.7502 39.5773 14.4509 39.5773C15.5767 39.5754 16.6823 39.278 17.6571 38.7148L35.7696 28.3273C36.7429 27.764 37.5509 26.9547 38.1126 25.9806C38.6743 25.0065 38.97 23.9018 38.97 22.7773C38.97 21.6528 38.6743 20.5481 38.1126 19.574C37.5509 18.5998 36.7429 17.7906 35.7696 17.2273L35.7696 17.0773ZM33.8946 24.9335L15.7821 35.471C15.3762 35.7011 14.9175 35.822 14.4509 35.822C13.9842 35.822 13.5256 35.7011 13.1196 35.471C12.7148 35.2373 12.3786 34.9011 12.145 34.4963C11.9113 34.0914 11.7883 33.6322 11.7884 33.1648L11.7884 12.2398C11.7883 11.7723 11.9113 11.3131 12.145 10.9083C12.3786 10.5034 12.7148 10.1673 13.1196 9.93354C13.5273 9.70695 13.9845 9.58458 14.4509 9.57729C14.9169 9.58685 15.3736 9.70908 15.7821 9.93354L33.8946 20.396C34.2996 20.6297 34.6359 20.9658 34.8697 21.3706C35.1036 21.7755 35.2267 22.2348 35.2267 22.7023C35.2267 23.1698 35.1036 23.6291 34.8697 24.0339C34.6359 24.4388 34.2996 24.7749 33.8946 25.0085L33.8946 24.9335Z" fill="white"/>
</svg>
