<svg width="24" height="24" viewBox="0 0 24 24" fill="none" xmlns="http://www.w3.org/2000/svg">
<path d="M7.93949 21.546C7.65828 21.2647 7.50031 20.8832 7.50031 20.4855C7.50031 20.0877 7.65828 19.7063 7.93948 19.425L15.3645 12L7.93948 4.57499C7.66625 4.29209 7.51505 3.91318 7.51847 3.51989C7.52189 3.12659 7.67964 2.75037 7.95776 2.47226C8.23587 2.19415 8.61209 2.0364 9.00538 2.03298C9.39868 2.02956 9.77758 2.18075 10.0605 2.45399L18.546 10.9395C18.8272 11.2208 18.9852 11.6022 18.9852 12C18.9852 12.3977 18.8272 12.7792 18.546 13.0605L10.0605 21.546C9.77919 21.8272 9.39773 21.9852 8.99998 21.9852C8.60224 21.9852 8.22078 21.8272 7.93949 21.546Z" fill="#EB2D4B"/>
</svg>
